%TF.GenerationSoftware,KiCad,Pcbnew,8.0.7*%
%TF.CreationDate,2025-01-21T12:25:00-05:00*%
%TF.ProjectId,TinyAFireController,54696e79-4146-4697-9265-436f6e74726f,rev?*%
%TF.SameCoordinates,Original*%
%TF.FileFunction,Legend,Bot*%
%TF.FilePolarity,Positive*%
%FSLAX46Y46*%
G04 Gerber Fmt 4.6, Leading zero omitted, Abs format (unit mm)*
G04 Created by KiCad (PCBNEW 8.0.7) date 2025-01-21 12:25:00*
%MOMM*%
%LPD*%
G01*
G04 APERTURE LIST*
%ADD10C,0.100000*%
G04 APERTURE END LIST*
D10*
X154678972Y-98182419D02*
X154107544Y-98182419D01*
X154393258Y-99182419D02*
X154393258Y-98182419D01*
X153583734Y-98182419D02*
X153393258Y-98182419D01*
X153393258Y-98182419D02*
X153298020Y-98230038D01*
X153298020Y-98230038D02*
X153202782Y-98325276D01*
X153202782Y-98325276D02*
X153155163Y-98515752D01*
X153155163Y-98515752D02*
X153155163Y-98849085D01*
X153155163Y-98849085D02*
X153202782Y-99039561D01*
X153202782Y-99039561D02*
X153298020Y-99134800D01*
X153298020Y-99134800D02*
X153393258Y-99182419D01*
X153393258Y-99182419D02*
X153583734Y-99182419D01*
X153583734Y-99182419D02*
X153678972Y-99134800D01*
X153678972Y-99134800D02*
X153774210Y-99039561D01*
X153774210Y-99039561D02*
X153821829Y-98849085D01*
X153821829Y-98849085D02*
X153821829Y-98515752D01*
X153821829Y-98515752D02*
X153774210Y-98325276D01*
X153774210Y-98325276D02*
X153678972Y-98230038D01*
X153678972Y-98230038D02*
X153583734Y-98182419D01*
X151678972Y-98182419D02*
X151678972Y-98896704D01*
X151678972Y-98896704D02*
X151726591Y-99039561D01*
X151726591Y-99039561D02*
X151821829Y-99134800D01*
X151821829Y-99134800D02*
X151964686Y-99182419D01*
X151964686Y-99182419D02*
X152059924Y-99182419D01*
X151012305Y-98182419D02*
X150821829Y-98182419D01*
X150821829Y-98182419D02*
X150726591Y-98230038D01*
X150726591Y-98230038D02*
X150631353Y-98325276D01*
X150631353Y-98325276D02*
X150583734Y-98515752D01*
X150583734Y-98515752D02*
X150583734Y-98849085D01*
X150583734Y-98849085D02*
X150631353Y-99039561D01*
X150631353Y-99039561D02*
X150726591Y-99134800D01*
X150726591Y-99134800D02*
X150821829Y-99182419D01*
X150821829Y-99182419D02*
X151012305Y-99182419D01*
X151012305Y-99182419D02*
X151107543Y-99134800D01*
X151107543Y-99134800D02*
X151202781Y-99039561D01*
X151202781Y-99039561D02*
X151250400Y-98849085D01*
X151250400Y-98849085D02*
X151250400Y-98515752D01*
X151250400Y-98515752D02*
X151202781Y-98325276D01*
X151202781Y-98325276D02*
X151107543Y-98230038D01*
X151107543Y-98230038D02*
X151012305Y-98182419D01*
X149964686Y-98706228D02*
X149964686Y-99182419D01*
X150298019Y-98182419D02*
X149964686Y-98706228D01*
X149964686Y-98706228D02*
X149631353Y-98182419D01*
X149345638Y-99134800D02*
X149202781Y-99182419D01*
X149202781Y-99182419D02*
X148964686Y-99182419D01*
X148964686Y-99182419D02*
X148869448Y-99134800D01*
X148869448Y-99134800D02*
X148821829Y-99087180D01*
X148821829Y-99087180D02*
X148774210Y-98991942D01*
X148774210Y-98991942D02*
X148774210Y-98896704D01*
X148774210Y-98896704D02*
X148821829Y-98801466D01*
X148821829Y-98801466D02*
X148869448Y-98753847D01*
X148869448Y-98753847D02*
X148964686Y-98706228D01*
X148964686Y-98706228D02*
X149155162Y-98658609D01*
X149155162Y-98658609D02*
X149250400Y-98610990D01*
X149250400Y-98610990D02*
X149298019Y-98563371D01*
X149298019Y-98563371D02*
X149345638Y-98468133D01*
X149345638Y-98468133D02*
X149345638Y-98372895D01*
X149345638Y-98372895D02*
X149298019Y-98277657D01*
X149298019Y-98277657D02*
X149250400Y-98230038D01*
X149250400Y-98230038D02*
X149155162Y-98182419D01*
X149155162Y-98182419D02*
X148917067Y-98182419D01*
X148917067Y-98182419D02*
X148774210Y-98230038D01*
X148488495Y-98182419D02*
X147917067Y-98182419D01*
X148202781Y-99182419D02*
X148202781Y-98182419D01*
X147583733Y-99182419D02*
X147583733Y-98182419D01*
X146536115Y-99087180D02*
X146583734Y-99134800D01*
X146583734Y-99134800D02*
X146726591Y-99182419D01*
X146726591Y-99182419D02*
X146821829Y-99182419D01*
X146821829Y-99182419D02*
X146964686Y-99134800D01*
X146964686Y-99134800D02*
X147059924Y-99039561D01*
X147059924Y-99039561D02*
X147107543Y-98944323D01*
X147107543Y-98944323D02*
X147155162Y-98753847D01*
X147155162Y-98753847D02*
X147155162Y-98610990D01*
X147155162Y-98610990D02*
X147107543Y-98420514D01*
X147107543Y-98420514D02*
X147059924Y-98325276D01*
X147059924Y-98325276D02*
X146964686Y-98230038D01*
X146964686Y-98230038D02*
X146821829Y-98182419D01*
X146821829Y-98182419D02*
X146726591Y-98182419D01*
X146726591Y-98182419D02*
X146583734Y-98230038D01*
X146583734Y-98230038D02*
X146536115Y-98277657D01*
X146107543Y-99182419D02*
X146107543Y-98182419D01*
X145536115Y-99182419D02*
X145964686Y-98610990D01*
X145536115Y-98182419D02*
X146107543Y-98753847D01*
X143774210Y-99182419D02*
X144107543Y-98706228D01*
X144345638Y-99182419D02*
X144345638Y-98182419D01*
X144345638Y-98182419D02*
X143964686Y-98182419D01*
X143964686Y-98182419D02*
X143869448Y-98230038D01*
X143869448Y-98230038D02*
X143821829Y-98277657D01*
X143821829Y-98277657D02*
X143774210Y-98372895D01*
X143774210Y-98372895D02*
X143774210Y-98515752D01*
X143774210Y-98515752D02*
X143821829Y-98610990D01*
X143821829Y-98610990D02*
X143869448Y-98658609D01*
X143869448Y-98658609D02*
X143964686Y-98706228D01*
X143964686Y-98706228D02*
X144345638Y-98706228D01*
X143393257Y-98896704D02*
X142917067Y-98896704D01*
X143488495Y-99182419D02*
X143155162Y-98182419D01*
X143155162Y-98182419D02*
X142821829Y-99182419D01*
X142631352Y-98182419D02*
X142059924Y-98182419D01*
X142345638Y-99182419D02*
X142345638Y-98182419D01*
X141726590Y-98658609D02*
X141393257Y-98658609D01*
X141250400Y-99182419D02*
X141726590Y-99182419D01*
X141726590Y-99182419D02*
X141726590Y-98182419D01*
X141726590Y-98182419D02*
X141250400Y-98182419D01*
X139726590Y-98658609D02*
X139583733Y-98706228D01*
X139583733Y-98706228D02*
X139536114Y-98753847D01*
X139536114Y-98753847D02*
X139488495Y-98849085D01*
X139488495Y-98849085D02*
X139488495Y-98991942D01*
X139488495Y-98991942D02*
X139536114Y-99087180D01*
X139536114Y-99087180D02*
X139583733Y-99134800D01*
X139583733Y-99134800D02*
X139678971Y-99182419D01*
X139678971Y-99182419D02*
X140059923Y-99182419D01*
X140059923Y-99182419D02*
X140059923Y-98182419D01*
X140059923Y-98182419D02*
X139726590Y-98182419D01*
X139726590Y-98182419D02*
X139631352Y-98230038D01*
X139631352Y-98230038D02*
X139583733Y-98277657D01*
X139583733Y-98277657D02*
X139536114Y-98372895D01*
X139536114Y-98372895D02*
X139536114Y-98468133D01*
X139536114Y-98468133D02*
X139583733Y-98563371D01*
X139583733Y-98563371D02*
X139631352Y-98610990D01*
X139631352Y-98610990D02*
X139726590Y-98658609D01*
X139726590Y-98658609D02*
X140059923Y-98658609D01*
X139059923Y-98182419D02*
X139059923Y-98991942D01*
X139059923Y-98991942D02*
X139012304Y-99087180D01*
X139012304Y-99087180D02*
X138964685Y-99134800D01*
X138964685Y-99134800D02*
X138869447Y-99182419D01*
X138869447Y-99182419D02*
X138678971Y-99182419D01*
X138678971Y-99182419D02*
X138583733Y-99134800D01*
X138583733Y-99134800D02*
X138536114Y-99087180D01*
X138536114Y-99087180D02*
X138488495Y-98991942D01*
X138488495Y-98991942D02*
X138488495Y-98182419D01*
X138155161Y-98182419D02*
X137583733Y-98182419D01*
X137869447Y-99182419D02*
X137869447Y-98182419D01*
X137393256Y-98182419D02*
X136821828Y-98182419D01*
X137107542Y-99182419D02*
X137107542Y-98182419D01*
X136298018Y-98182419D02*
X136107542Y-98182419D01*
X136107542Y-98182419D02*
X136012304Y-98230038D01*
X136012304Y-98230038D02*
X135917066Y-98325276D01*
X135917066Y-98325276D02*
X135869447Y-98515752D01*
X135869447Y-98515752D02*
X135869447Y-98849085D01*
X135869447Y-98849085D02*
X135917066Y-99039561D01*
X135917066Y-99039561D02*
X136012304Y-99134800D01*
X136012304Y-99134800D02*
X136107542Y-99182419D01*
X136107542Y-99182419D02*
X136298018Y-99182419D01*
X136298018Y-99182419D02*
X136393256Y-99134800D01*
X136393256Y-99134800D02*
X136488494Y-99039561D01*
X136488494Y-99039561D02*
X136536113Y-98849085D01*
X136536113Y-98849085D02*
X136536113Y-98515752D01*
X136536113Y-98515752D02*
X136488494Y-98325276D01*
X136488494Y-98325276D02*
X136393256Y-98230038D01*
X136393256Y-98230038D02*
X136298018Y-98182419D01*
X135440875Y-99182419D02*
X135440875Y-98182419D01*
X135440875Y-98182419D02*
X134869447Y-99182419D01*
X134869447Y-99182419D02*
X134869447Y-98182419D01*
X154678972Y-92932419D02*
X154107544Y-92932419D01*
X154393258Y-93932419D02*
X154393258Y-92932419D01*
X153583734Y-92932419D02*
X153393258Y-92932419D01*
X153393258Y-92932419D02*
X153298020Y-92980038D01*
X153298020Y-92980038D02*
X153202782Y-93075276D01*
X153202782Y-93075276D02*
X153155163Y-93265752D01*
X153155163Y-93265752D02*
X153155163Y-93599085D01*
X153155163Y-93599085D02*
X153202782Y-93789561D01*
X153202782Y-93789561D02*
X153298020Y-93884800D01*
X153298020Y-93884800D02*
X153393258Y-93932419D01*
X153393258Y-93932419D02*
X153583734Y-93932419D01*
X153583734Y-93932419D02*
X153678972Y-93884800D01*
X153678972Y-93884800D02*
X153774210Y-93789561D01*
X153774210Y-93789561D02*
X153821829Y-93599085D01*
X153821829Y-93599085D02*
X153821829Y-93265752D01*
X153821829Y-93265752D02*
X153774210Y-93075276D01*
X153774210Y-93075276D02*
X153678972Y-92980038D01*
X153678972Y-92980038D02*
X153583734Y-92932419D01*
X151678972Y-92932419D02*
X151678972Y-93646704D01*
X151678972Y-93646704D02*
X151726591Y-93789561D01*
X151726591Y-93789561D02*
X151821829Y-93884800D01*
X151821829Y-93884800D02*
X151964686Y-93932419D01*
X151964686Y-93932419D02*
X152059924Y-93932419D01*
X151012305Y-92932419D02*
X150821829Y-92932419D01*
X150821829Y-92932419D02*
X150726591Y-92980038D01*
X150726591Y-92980038D02*
X150631353Y-93075276D01*
X150631353Y-93075276D02*
X150583734Y-93265752D01*
X150583734Y-93265752D02*
X150583734Y-93599085D01*
X150583734Y-93599085D02*
X150631353Y-93789561D01*
X150631353Y-93789561D02*
X150726591Y-93884800D01*
X150726591Y-93884800D02*
X150821829Y-93932419D01*
X150821829Y-93932419D02*
X151012305Y-93932419D01*
X151012305Y-93932419D02*
X151107543Y-93884800D01*
X151107543Y-93884800D02*
X151202781Y-93789561D01*
X151202781Y-93789561D02*
X151250400Y-93599085D01*
X151250400Y-93599085D02*
X151250400Y-93265752D01*
X151250400Y-93265752D02*
X151202781Y-93075276D01*
X151202781Y-93075276D02*
X151107543Y-92980038D01*
X151107543Y-92980038D02*
X151012305Y-92932419D01*
X149964686Y-93456228D02*
X149964686Y-93932419D01*
X150298019Y-92932419D02*
X149964686Y-93456228D01*
X149964686Y-93456228D02*
X149631353Y-92932419D01*
X149345638Y-93884800D02*
X149202781Y-93932419D01*
X149202781Y-93932419D02*
X148964686Y-93932419D01*
X148964686Y-93932419D02*
X148869448Y-93884800D01*
X148869448Y-93884800D02*
X148821829Y-93837180D01*
X148821829Y-93837180D02*
X148774210Y-93741942D01*
X148774210Y-93741942D02*
X148774210Y-93646704D01*
X148774210Y-93646704D02*
X148821829Y-93551466D01*
X148821829Y-93551466D02*
X148869448Y-93503847D01*
X148869448Y-93503847D02*
X148964686Y-93456228D01*
X148964686Y-93456228D02*
X149155162Y-93408609D01*
X149155162Y-93408609D02*
X149250400Y-93360990D01*
X149250400Y-93360990D02*
X149298019Y-93313371D01*
X149298019Y-93313371D02*
X149345638Y-93218133D01*
X149345638Y-93218133D02*
X149345638Y-93122895D01*
X149345638Y-93122895D02*
X149298019Y-93027657D01*
X149298019Y-93027657D02*
X149250400Y-92980038D01*
X149250400Y-92980038D02*
X149155162Y-92932419D01*
X149155162Y-92932419D02*
X148917067Y-92932419D01*
X148917067Y-92932419D02*
X148774210Y-92980038D01*
X148488495Y-92932419D02*
X147917067Y-92932419D01*
X148202781Y-93932419D02*
X148202781Y-92932419D01*
X147583733Y-93932419D02*
X147583733Y-92932419D01*
X146536115Y-93837180D02*
X146583734Y-93884800D01*
X146583734Y-93884800D02*
X146726591Y-93932419D01*
X146726591Y-93932419D02*
X146821829Y-93932419D01*
X146821829Y-93932419D02*
X146964686Y-93884800D01*
X146964686Y-93884800D02*
X147059924Y-93789561D01*
X147059924Y-93789561D02*
X147107543Y-93694323D01*
X147107543Y-93694323D02*
X147155162Y-93503847D01*
X147155162Y-93503847D02*
X147155162Y-93360990D01*
X147155162Y-93360990D02*
X147107543Y-93170514D01*
X147107543Y-93170514D02*
X147059924Y-93075276D01*
X147059924Y-93075276D02*
X146964686Y-92980038D01*
X146964686Y-92980038D02*
X146821829Y-92932419D01*
X146821829Y-92932419D02*
X146726591Y-92932419D01*
X146726591Y-92932419D02*
X146583734Y-92980038D01*
X146583734Y-92980038D02*
X146536115Y-93027657D01*
X146107543Y-93932419D02*
X146107543Y-92932419D01*
X145536115Y-93932419D02*
X145964686Y-93360990D01*
X145536115Y-92932419D02*
X146107543Y-93503847D01*
X144345638Y-93932419D02*
X144345638Y-92932419D01*
X144345638Y-92932419D02*
X143964686Y-92932419D01*
X143964686Y-92932419D02*
X143869448Y-92980038D01*
X143869448Y-92980038D02*
X143821829Y-93027657D01*
X143821829Y-93027657D02*
X143774210Y-93122895D01*
X143774210Y-93122895D02*
X143774210Y-93265752D01*
X143774210Y-93265752D02*
X143821829Y-93360990D01*
X143821829Y-93360990D02*
X143869448Y-93408609D01*
X143869448Y-93408609D02*
X143964686Y-93456228D01*
X143964686Y-93456228D02*
X144345638Y-93456228D01*
X143345638Y-93932419D02*
X143345638Y-92932419D01*
X142869448Y-93932419D02*
X142869448Y-92932419D01*
X142869448Y-92932419D02*
X142298020Y-93932419D01*
X142298020Y-93932419D02*
X142298020Y-92932419D01*
X140631353Y-92932419D02*
X140821829Y-92932419D01*
X140821829Y-92932419D02*
X140917067Y-92980038D01*
X140917067Y-92980038D02*
X140964686Y-93027657D01*
X140964686Y-93027657D02*
X141059924Y-93170514D01*
X141059924Y-93170514D02*
X141107543Y-93360990D01*
X141107543Y-93360990D02*
X141107543Y-93741942D01*
X141107543Y-93741942D02*
X141059924Y-93837180D01*
X141059924Y-93837180D02*
X141012305Y-93884800D01*
X141012305Y-93884800D02*
X140917067Y-93932419D01*
X140917067Y-93932419D02*
X140726591Y-93932419D01*
X140726591Y-93932419D02*
X140631353Y-93884800D01*
X140631353Y-93884800D02*
X140583734Y-93837180D01*
X140583734Y-93837180D02*
X140536115Y-93741942D01*
X140536115Y-93741942D02*
X140536115Y-93503847D01*
X140536115Y-93503847D02*
X140583734Y-93408609D01*
X140583734Y-93408609D02*
X140631353Y-93360990D01*
X140631353Y-93360990D02*
X140726591Y-93313371D01*
X140726591Y-93313371D02*
X140917067Y-93313371D01*
X140917067Y-93313371D02*
X141012305Y-93360990D01*
X141012305Y-93360990D02*
X141059924Y-93408609D01*
X141059924Y-93408609D02*
X141107543Y-93503847D01*
X142036115Y-105182419D02*
X142036115Y-104182419D01*
X142036115Y-104182419D02*
X141702782Y-104896704D01*
X141702782Y-104896704D02*
X141369449Y-104182419D01*
X141369449Y-104182419D02*
X141369449Y-105182419D01*
X140988496Y-104182419D02*
X140369449Y-104182419D01*
X140369449Y-104182419D02*
X140702782Y-104563371D01*
X140702782Y-104563371D02*
X140559925Y-104563371D01*
X140559925Y-104563371D02*
X140464687Y-104610990D01*
X140464687Y-104610990D02*
X140417068Y-104658609D01*
X140417068Y-104658609D02*
X140369449Y-104753847D01*
X140369449Y-104753847D02*
X140369449Y-104991942D01*
X140369449Y-104991942D02*
X140417068Y-105087180D01*
X140417068Y-105087180D02*
X140464687Y-105134800D01*
X140464687Y-105134800D02*
X140559925Y-105182419D01*
X140559925Y-105182419D02*
X140845639Y-105182419D01*
X140845639Y-105182419D02*
X140940877Y-105134800D01*
X140940877Y-105134800D02*
X140988496Y-105087180D01*
X139178972Y-105182419D02*
X139178972Y-104182419D01*
X139178972Y-104182419D02*
X138845639Y-104896704D01*
X138845639Y-104896704D02*
X138512306Y-104182419D01*
X138512306Y-104182419D02*
X138512306Y-105182419D01*
X137845639Y-104182419D02*
X137655163Y-104182419D01*
X137655163Y-104182419D02*
X137559925Y-104230038D01*
X137559925Y-104230038D02*
X137464687Y-104325276D01*
X137464687Y-104325276D02*
X137417068Y-104515752D01*
X137417068Y-104515752D02*
X137417068Y-104849085D01*
X137417068Y-104849085D02*
X137464687Y-105039561D01*
X137464687Y-105039561D02*
X137559925Y-105134800D01*
X137559925Y-105134800D02*
X137655163Y-105182419D01*
X137655163Y-105182419D02*
X137845639Y-105182419D01*
X137845639Y-105182419D02*
X137940877Y-105134800D01*
X137940877Y-105134800D02*
X138036115Y-105039561D01*
X138036115Y-105039561D02*
X138083734Y-104849085D01*
X138083734Y-104849085D02*
X138083734Y-104515752D01*
X138083734Y-104515752D02*
X138036115Y-104325276D01*
X138036115Y-104325276D02*
X137940877Y-104230038D01*
X137940877Y-104230038D02*
X137845639Y-104182419D01*
X136988496Y-104182419D02*
X136988496Y-104991942D01*
X136988496Y-104991942D02*
X136940877Y-105087180D01*
X136940877Y-105087180D02*
X136893258Y-105134800D01*
X136893258Y-105134800D02*
X136798020Y-105182419D01*
X136798020Y-105182419D02*
X136607544Y-105182419D01*
X136607544Y-105182419D02*
X136512306Y-105134800D01*
X136512306Y-105134800D02*
X136464687Y-105087180D01*
X136464687Y-105087180D02*
X136417068Y-104991942D01*
X136417068Y-104991942D02*
X136417068Y-104182419D01*
X135940877Y-105182419D02*
X135940877Y-104182419D01*
X135940877Y-104182419D02*
X135369449Y-105182419D01*
X135369449Y-105182419D02*
X135369449Y-104182419D01*
X135036115Y-104182419D02*
X134464687Y-104182419D01*
X134750401Y-105182419D02*
X134750401Y-104182419D01*
X165702782Y-103658609D02*
X166036115Y-103658609D01*
X166036115Y-104182419D02*
X166036115Y-103182419D01*
X166036115Y-103182419D02*
X165559925Y-103182419D01*
X165178972Y-104182419D02*
X165178972Y-103182419D01*
X164131354Y-104182419D02*
X164464687Y-103706228D01*
X164702782Y-104182419D02*
X164702782Y-103182419D01*
X164702782Y-103182419D02*
X164321830Y-103182419D01*
X164321830Y-103182419D02*
X164226592Y-103230038D01*
X164226592Y-103230038D02*
X164178973Y-103277657D01*
X164178973Y-103277657D02*
X164131354Y-103372895D01*
X164131354Y-103372895D02*
X164131354Y-103515752D01*
X164131354Y-103515752D02*
X164178973Y-103610990D01*
X164178973Y-103610990D02*
X164226592Y-103658609D01*
X164226592Y-103658609D02*
X164321830Y-103706228D01*
X164321830Y-103706228D02*
X164702782Y-103706228D01*
X163702782Y-103658609D02*
X163369449Y-103658609D01*
X163226592Y-104182419D02*
X163702782Y-104182419D01*
X163702782Y-104182419D02*
X163702782Y-103182419D01*
X163702782Y-103182419D02*
X163226592Y-103182419D01*
X163036116Y-104277657D02*
X162274211Y-104277657D01*
X161559925Y-104182419D02*
X162036115Y-104182419D01*
X162036115Y-104182419D02*
X162036115Y-103182419D01*
X161226591Y-103658609D02*
X160893258Y-103658609D01*
X160750401Y-104182419D02*
X161226591Y-104182419D01*
X161226591Y-104182419D02*
X161226591Y-103182419D01*
X161226591Y-103182419D02*
X160750401Y-103182419D01*
X160321829Y-104182419D02*
X160321829Y-103182419D01*
X160321829Y-103182419D02*
X160083734Y-103182419D01*
X160083734Y-103182419D02*
X159940877Y-103230038D01*
X159940877Y-103230038D02*
X159845639Y-103325276D01*
X159845639Y-103325276D02*
X159798020Y-103420514D01*
X159798020Y-103420514D02*
X159750401Y-103610990D01*
X159750401Y-103610990D02*
X159750401Y-103753847D01*
X159750401Y-103753847D02*
X159798020Y-103944323D01*
X159798020Y-103944323D02*
X159845639Y-104039561D01*
X159845639Y-104039561D02*
X159940877Y-104134800D01*
X159940877Y-104134800D02*
X160083734Y-104182419D01*
X160083734Y-104182419D02*
X160321829Y-104182419D01*
X159321829Y-103801466D02*
X158559925Y-103801466D01*
X154428972Y-113432419D02*
X153857544Y-113432419D01*
X154143258Y-114432419D02*
X154143258Y-113432419D01*
X153333734Y-113432419D02*
X153143258Y-113432419D01*
X153143258Y-113432419D02*
X153048020Y-113480038D01*
X153048020Y-113480038D02*
X152952782Y-113575276D01*
X152952782Y-113575276D02*
X152905163Y-113765752D01*
X152905163Y-113765752D02*
X152905163Y-114099085D01*
X152905163Y-114099085D02*
X152952782Y-114289561D01*
X152952782Y-114289561D02*
X153048020Y-114384800D01*
X153048020Y-114384800D02*
X153143258Y-114432419D01*
X153143258Y-114432419D02*
X153333734Y-114432419D01*
X153333734Y-114432419D02*
X153428972Y-114384800D01*
X153428972Y-114384800D02*
X153524210Y-114289561D01*
X153524210Y-114289561D02*
X153571829Y-114099085D01*
X153571829Y-114099085D02*
X153571829Y-113765752D01*
X153571829Y-113765752D02*
X153524210Y-113575276D01*
X153524210Y-113575276D02*
X153428972Y-113480038D01*
X153428972Y-113480038D02*
X153333734Y-113432419D01*
X151714686Y-113908609D02*
X151381353Y-113908609D01*
X151238496Y-114432419D02*
X151714686Y-114432419D01*
X151714686Y-114432419D02*
X151714686Y-113432419D01*
X151714686Y-113432419D02*
X151238496Y-113432419D01*
X150905162Y-113432419D02*
X150238496Y-114432419D01*
X150238496Y-113432419D02*
X150905162Y-114432419D01*
X150000400Y-113432419D02*
X149428972Y-113432419D01*
X149714686Y-114432419D02*
X149714686Y-113432419D01*
X148428971Y-113432419D02*
X148190876Y-114432419D01*
X148190876Y-114432419D02*
X148000400Y-113718133D01*
X148000400Y-113718133D02*
X147809924Y-114432419D01*
X147809924Y-114432419D02*
X147571829Y-113432419D01*
X147238495Y-114384800D02*
X147095638Y-114432419D01*
X147095638Y-114432419D02*
X146857543Y-114432419D01*
X146857543Y-114432419D02*
X146762305Y-114384800D01*
X146762305Y-114384800D02*
X146714686Y-114337180D01*
X146714686Y-114337180D02*
X146667067Y-114241942D01*
X146667067Y-114241942D02*
X146667067Y-114146704D01*
X146667067Y-114146704D02*
X146714686Y-114051466D01*
X146714686Y-114051466D02*
X146762305Y-114003847D01*
X146762305Y-114003847D02*
X146857543Y-113956228D01*
X146857543Y-113956228D02*
X147048019Y-113908609D01*
X147048019Y-113908609D02*
X147143257Y-113860990D01*
X147143257Y-113860990D02*
X147190876Y-113813371D01*
X147190876Y-113813371D02*
X147238495Y-113718133D01*
X147238495Y-113718133D02*
X147238495Y-113622895D01*
X147238495Y-113622895D02*
X147190876Y-113527657D01*
X147190876Y-113527657D02*
X147143257Y-113480038D01*
X147143257Y-113480038D02*
X147048019Y-113432419D01*
X147048019Y-113432419D02*
X146809924Y-113432419D01*
X146809924Y-113432419D02*
X146667067Y-113480038D01*
X146286114Y-113527657D02*
X146238495Y-113480038D01*
X146238495Y-113480038D02*
X146143257Y-113432419D01*
X146143257Y-113432419D02*
X145905162Y-113432419D01*
X145905162Y-113432419D02*
X145809924Y-113480038D01*
X145809924Y-113480038D02*
X145762305Y-113527657D01*
X145762305Y-113527657D02*
X145714686Y-113622895D01*
X145714686Y-113622895D02*
X145714686Y-113718133D01*
X145714686Y-113718133D02*
X145762305Y-113860990D01*
X145762305Y-113860990D02*
X146333733Y-114432419D01*
X146333733Y-114432419D02*
X145714686Y-114432419D01*
X145143257Y-113860990D02*
X145238495Y-113813371D01*
X145238495Y-113813371D02*
X145286114Y-113765752D01*
X145286114Y-113765752D02*
X145333733Y-113670514D01*
X145333733Y-113670514D02*
X145333733Y-113622895D01*
X145333733Y-113622895D02*
X145286114Y-113527657D01*
X145286114Y-113527657D02*
X145238495Y-113480038D01*
X145238495Y-113480038D02*
X145143257Y-113432419D01*
X145143257Y-113432419D02*
X144952781Y-113432419D01*
X144952781Y-113432419D02*
X144857543Y-113480038D01*
X144857543Y-113480038D02*
X144809924Y-113527657D01*
X144809924Y-113527657D02*
X144762305Y-113622895D01*
X144762305Y-113622895D02*
X144762305Y-113670514D01*
X144762305Y-113670514D02*
X144809924Y-113765752D01*
X144809924Y-113765752D02*
X144857543Y-113813371D01*
X144857543Y-113813371D02*
X144952781Y-113860990D01*
X144952781Y-113860990D02*
X145143257Y-113860990D01*
X145143257Y-113860990D02*
X145238495Y-113908609D01*
X145238495Y-113908609D02*
X145286114Y-113956228D01*
X145286114Y-113956228D02*
X145333733Y-114051466D01*
X145333733Y-114051466D02*
X145333733Y-114241942D01*
X145333733Y-114241942D02*
X145286114Y-114337180D01*
X145286114Y-114337180D02*
X145238495Y-114384800D01*
X145238495Y-114384800D02*
X145143257Y-114432419D01*
X145143257Y-114432419D02*
X144952781Y-114432419D01*
X144952781Y-114432419D02*
X144857543Y-114384800D01*
X144857543Y-114384800D02*
X144809924Y-114337180D01*
X144809924Y-114337180D02*
X144762305Y-114241942D01*
X144762305Y-114241942D02*
X144762305Y-114051466D01*
X144762305Y-114051466D02*
X144809924Y-113956228D01*
X144809924Y-113956228D02*
X144857543Y-113908609D01*
X144857543Y-113908609D02*
X144952781Y-113860990D01*
X143809924Y-114432419D02*
X144381352Y-114432419D01*
X144095638Y-114432419D02*
X144095638Y-113432419D01*
X144095638Y-113432419D02*
X144190876Y-113575276D01*
X144190876Y-113575276D02*
X144286114Y-113670514D01*
X144286114Y-113670514D02*
X144381352Y-113718133D01*
X143428971Y-113527657D02*
X143381352Y-113480038D01*
X143381352Y-113480038D02*
X143286114Y-113432419D01*
X143286114Y-113432419D02*
X143048019Y-113432419D01*
X143048019Y-113432419D02*
X142952781Y-113480038D01*
X142952781Y-113480038D02*
X142905162Y-113527657D01*
X142905162Y-113527657D02*
X142857543Y-113622895D01*
X142857543Y-113622895D02*
X142857543Y-113718133D01*
X142857543Y-113718133D02*
X142905162Y-113860990D01*
X142905162Y-113860990D02*
X143476590Y-114432419D01*
X143476590Y-114432419D02*
X142857543Y-114432419D01*
X142095638Y-113908609D02*
X141952781Y-113956228D01*
X141952781Y-113956228D02*
X141905162Y-114003847D01*
X141905162Y-114003847D02*
X141857543Y-114099085D01*
X141857543Y-114099085D02*
X141857543Y-114241942D01*
X141857543Y-114241942D02*
X141905162Y-114337180D01*
X141905162Y-114337180D02*
X141952781Y-114384800D01*
X141952781Y-114384800D02*
X142048019Y-114432419D01*
X142048019Y-114432419D02*
X142428971Y-114432419D01*
X142428971Y-114432419D02*
X142428971Y-113432419D01*
X142428971Y-113432419D02*
X142095638Y-113432419D01*
X142095638Y-113432419D02*
X142000400Y-113480038D01*
X142000400Y-113480038D02*
X141952781Y-113527657D01*
X141952781Y-113527657D02*
X141905162Y-113622895D01*
X141905162Y-113622895D02*
X141905162Y-113718133D01*
X141905162Y-113718133D02*
X141952781Y-113813371D01*
X141952781Y-113813371D02*
X142000400Y-113860990D01*
X142000400Y-113860990D02*
X142095638Y-113908609D01*
X142095638Y-113908609D02*
X142428971Y-113908609D01*
X165512306Y-113230038D02*
X165607544Y-113182419D01*
X165607544Y-113182419D02*
X165750401Y-113182419D01*
X165750401Y-113182419D02*
X165893258Y-113230038D01*
X165893258Y-113230038D02*
X165988496Y-113325276D01*
X165988496Y-113325276D02*
X166036115Y-113420514D01*
X166036115Y-113420514D02*
X166083734Y-113610990D01*
X166083734Y-113610990D02*
X166083734Y-113753847D01*
X166083734Y-113753847D02*
X166036115Y-113944323D01*
X166036115Y-113944323D02*
X165988496Y-114039561D01*
X165988496Y-114039561D02*
X165893258Y-114134800D01*
X165893258Y-114134800D02*
X165750401Y-114182419D01*
X165750401Y-114182419D02*
X165655163Y-114182419D01*
X165655163Y-114182419D02*
X165512306Y-114134800D01*
X165512306Y-114134800D02*
X165464687Y-114087180D01*
X165464687Y-114087180D02*
X165464687Y-113753847D01*
X165464687Y-113753847D02*
X165655163Y-113753847D01*
X165036115Y-114182419D02*
X165036115Y-113182419D01*
X165036115Y-113182419D02*
X164464687Y-114182419D01*
X164464687Y-114182419D02*
X164464687Y-113182419D01*
X163988496Y-114182419D02*
X163988496Y-113182419D01*
X163988496Y-113182419D02*
X163750401Y-113182419D01*
X163750401Y-113182419D02*
X163607544Y-113230038D01*
X163607544Y-113230038D02*
X163512306Y-113325276D01*
X163512306Y-113325276D02*
X163464687Y-113420514D01*
X163464687Y-113420514D02*
X163417068Y-113610990D01*
X163417068Y-113610990D02*
X163417068Y-113753847D01*
X163417068Y-113753847D02*
X163464687Y-113944323D01*
X163464687Y-113944323D02*
X163512306Y-114039561D01*
X163512306Y-114039561D02*
X163607544Y-114134800D01*
X163607544Y-114134800D02*
X163750401Y-114182419D01*
X163750401Y-114182419D02*
X163988496Y-114182419D01*
X166083734Y-101146704D02*
X165607544Y-101146704D01*
X166178972Y-101432419D02*
X165845639Y-100432419D01*
X165845639Y-100432419D02*
X165512306Y-101432419D01*
X165178972Y-101432419D02*
X165178972Y-100432419D01*
X165178972Y-100432419D02*
X164607544Y-101432419D01*
X164607544Y-101432419D02*
X164607544Y-100432419D01*
X164178972Y-101146704D02*
X163702782Y-101146704D01*
X164274210Y-101432419D02*
X163940877Y-100432419D01*
X163940877Y-100432419D02*
X163607544Y-101432419D01*
X163512306Y-101527657D02*
X162750401Y-101527657D01*
X161940877Y-101432419D02*
X162274210Y-100956228D01*
X162512305Y-101432419D02*
X162512305Y-100432419D01*
X162512305Y-100432419D02*
X162131353Y-100432419D01*
X162131353Y-100432419D02*
X162036115Y-100480038D01*
X162036115Y-100480038D02*
X161988496Y-100527657D01*
X161988496Y-100527657D02*
X161940877Y-100622895D01*
X161940877Y-100622895D02*
X161940877Y-100765752D01*
X161940877Y-100765752D02*
X161988496Y-100860990D01*
X161988496Y-100860990D02*
X162036115Y-100908609D01*
X162036115Y-100908609D02*
X162131353Y-100956228D01*
X162131353Y-100956228D02*
X162512305Y-100956228D01*
X161559924Y-101146704D02*
X161083734Y-101146704D01*
X161655162Y-101432419D02*
X161321829Y-100432419D01*
X161321829Y-100432419D02*
X160988496Y-101432419D01*
X160798019Y-100432419D02*
X160226591Y-100432419D01*
X160512305Y-101432419D02*
X160512305Y-100432419D01*
X159893257Y-100908609D02*
X159559924Y-100908609D01*
X159417067Y-101432419D02*
X159893257Y-101432419D01*
X159893257Y-101432419D02*
X159893257Y-100432419D01*
X159893257Y-100432419D02*
X159417067Y-100432419D01*
X153809925Y-104182419D02*
X154286115Y-104182419D01*
X154286115Y-104182419D02*
X154286115Y-103182419D01*
X153476591Y-103658609D02*
X153143258Y-103658609D01*
X153000401Y-104182419D02*
X153476591Y-104182419D01*
X153476591Y-104182419D02*
X153476591Y-103182419D01*
X153476591Y-103182419D02*
X153000401Y-103182419D01*
X152571829Y-104182419D02*
X152571829Y-103182419D01*
X152571829Y-103182419D02*
X152333734Y-103182419D01*
X152333734Y-103182419D02*
X152190877Y-103230038D01*
X152190877Y-103230038D02*
X152095639Y-103325276D01*
X152095639Y-103325276D02*
X152048020Y-103420514D01*
X152048020Y-103420514D02*
X152000401Y-103610990D01*
X152000401Y-103610990D02*
X152000401Y-103753847D01*
X152000401Y-103753847D02*
X152048020Y-103944323D01*
X152048020Y-103944323D02*
X152095639Y-104039561D01*
X152095639Y-104039561D02*
X152190877Y-104134800D01*
X152190877Y-104134800D02*
X152333734Y-104182419D01*
X152333734Y-104182419D02*
X152571829Y-104182419D01*
X151571829Y-103801466D02*
X150809925Y-103801466D01*
X153809925Y-106432419D02*
X154286115Y-106432419D01*
X154286115Y-106432419D02*
X154286115Y-105432419D01*
X153476591Y-105908609D02*
X153143258Y-105908609D01*
X153000401Y-106432419D02*
X153476591Y-106432419D01*
X153476591Y-106432419D02*
X153476591Y-105432419D01*
X153476591Y-105432419D02*
X153000401Y-105432419D01*
X152571829Y-106432419D02*
X152571829Y-105432419D01*
X152571829Y-105432419D02*
X152333734Y-105432419D01*
X152333734Y-105432419D02*
X152190877Y-105480038D01*
X152190877Y-105480038D02*
X152095639Y-105575276D01*
X152095639Y-105575276D02*
X152048020Y-105670514D01*
X152048020Y-105670514D02*
X152000401Y-105860990D01*
X152000401Y-105860990D02*
X152000401Y-106003847D01*
X152000401Y-106003847D02*
X152048020Y-106194323D01*
X152048020Y-106194323D02*
X152095639Y-106289561D01*
X152095639Y-106289561D02*
X152190877Y-106384800D01*
X152190877Y-106384800D02*
X152333734Y-106432419D01*
X152333734Y-106432419D02*
X152571829Y-106432419D01*
X151571829Y-106051466D02*
X150809925Y-106051466D01*
X151190877Y-106432419D02*
X151190877Y-105670514D01*
X166178972Y-105682419D02*
X165845639Y-106682419D01*
X165845639Y-106682419D02*
X165512306Y-105682419D01*
X164607544Y-106587180D02*
X164655163Y-106634800D01*
X164655163Y-106634800D02*
X164798020Y-106682419D01*
X164798020Y-106682419D02*
X164893258Y-106682419D01*
X164893258Y-106682419D02*
X165036115Y-106634800D01*
X165036115Y-106634800D02*
X165131353Y-106539561D01*
X165131353Y-106539561D02*
X165178972Y-106444323D01*
X165178972Y-106444323D02*
X165226591Y-106253847D01*
X165226591Y-106253847D02*
X165226591Y-106110990D01*
X165226591Y-106110990D02*
X165178972Y-105920514D01*
X165178972Y-105920514D02*
X165131353Y-105825276D01*
X165131353Y-105825276D02*
X165036115Y-105730038D01*
X165036115Y-105730038D02*
X164893258Y-105682419D01*
X164893258Y-105682419D02*
X164798020Y-105682419D01*
X164798020Y-105682419D02*
X164655163Y-105730038D01*
X164655163Y-105730038D02*
X164607544Y-105777657D01*
X163607544Y-106587180D02*
X163655163Y-106634800D01*
X163655163Y-106634800D02*
X163798020Y-106682419D01*
X163798020Y-106682419D02*
X163893258Y-106682419D01*
X163893258Y-106682419D02*
X164036115Y-106634800D01*
X164036115Y-106634800D02*
X164131353Y-106539561D01*
X164131353Y-106539561D02*
X164178972Y-106444323D01*
X164178972Y-106444323D02*
X164226591Y-106253847D01*
X164226591Y-106253847D02*
X164226591Y-106110990D01*
X164226591Y-106110990D02*
X164178972Y-105920514D01*
X164178972Y-105920514D02*
X164131353Y-105825276D01*
X164131353Y-105825276D02*
X164036115Y-105730038D01*
X164036115Y-105730038D02*
X163893258Y-105682419D01*
X163893258Y-105682419D02*
X163798020Y-105682419D01*
X163798020Y-105682419D02*
X163655163Y-105730038D01*
X163655163Y-105730038D02*
X163607544Y-105777657D01*
X165996115Y-109222419D02*
X165996115Y-108222419D01*
X165996115Y-108222419D02*
X165758020Y-108222419D01*
X165758020Y-108222419D02*
X165615163Y-108270038D01*
X165615163Y-108270038D02*
X165519925Y-108365276D01*
X165519925Y-108365276D02*
X165472306Y-108460514D01*
X165472306Y-108460514D02*
X165424687Y-108650990D01*
X165424687Y-108650990D02*
X165424687Y-108793847D01*
X165424687Y-108793847D02*
X165472306Y-108984323D01*
X165472306Y-108984323D02*
X165519925Y-109079561D01*
X165519925Y-109079561D02*
X165615163Y-109174800D01*
X165615163Y-109174800D02*
X165758020Y-109222419D01*
X165758020Y-109222419D02*
X165996115Y-109222419D01*
X165043734Y-108936704D02*
X164567544Y-108936704D01*
X165138972Y-109222419D02*
X164805639Y-108222419D01*
X164805639Y-108222419D02*
X164472306Y-109222419D01*
X164281829Y-108222419D02*
X163710401Y-108222419D01*
X163996115Y-109222419D02*
X163996115Y-108222419D01*
X163424686Y-108936704D02*
X162948496Y-108936704D01*
X163519924Y-109222419D02*
X163186591Y-108222419D01*
X163186591Y-108222419D02*
X162853258Y-109222419D01*
X161758019Y-109222419D02*
X161758019Y-108222419D01*
X161281829Y-109222419D02*
X161281829Y-108222419D01*
X161281829Y-108222419D02*
X160710401Y-109222419D01*
X160710401Y-109222419D02*
X160710401Y-108222419D01*
X166178972Y-110682419D02*
X165845639Y-111682419D01*
X165845639Y-111682419D02*
X165512306Y-110682419D01*
X164607544Y-111587180D02*
X164655163Y-111634800D01*
X164655163Y-111634800D02*
X164798020Y-111682419D01*
X164798020Y-111682419D02*
X164893258Y-111682419D01*
X164893258Y-111682419D02*
X165036115Y-111634800D01*
X165036115Y-111634800D02*
X165131353Y-111539561D01*
X165131353Y-111539561D02*
X165178972Y-111444323D01*
X165178972Y-111444323D02*
X165226591Y-111253847D01*
X165226591Y-111253847D02*
X165226591Y-111110990D01*
X165226591Y-111110990D02*
X165178972Y-110920514D01*
X165178972Y-110920514D02*
X165131353Y-110825276D01*
X165131353Y-110825276D02*
X165036115Y-110730038D01*
X165036115Y-110730038D02*
X164893258Y-110682419D01*
X164893258Y-110682419D02*
X164798020Y-110682419D01*
X164798020Y-110682419D02*
X164655163Y-110730038D01*
X164655163Y-110730038D02*
X164607544Y-110777657D01*
X163607544Y-111587180D02*
X163655163Y-111634800D01*
X163655163Y-111634800D02*
X163798020Y-111682419D01*
X163798020Y-111682419D02*
X163893258Y-111682419D01*
X163893258Y-111682419D02*
X164036115Y-111634800D01*
X164036115Y-111634800D02*
X164131353Y-111539561D01*
X164131353Y-111539561D02*
X164178972Y-111444323D01*
X164178972Y-111444323D02*
X164226591Y-111253847D01*
X164226591Y-111253847D02*
X164226591Y-111110990D01*
X164226591Y-111110990D02*
X164178972Y-110920514D01*
X164178972Y-110920514D02*
X164131353Y-110825276D01*
X164131353Y-110825276D02*
X164036115Y-110730038D01*
X164036115Y-110730038D02*
X163893258Y-110682419D01*
X163893258Y-110682419D02*
X163798020Y-110682419D01*
X163798020Y-110682419D02*
X163655163Y-110730038D01*
X163655163Y-110730038D02*
X163607544Y-110777657D01*
X165571830Y-93134800D02*
X166428972Y-94420514D01*
X164905163Y-93658609D02*
X165238496Y-93658609D01*
X165238496Y-94182419D02*
X165238496Y-93182419D01*
X165238496Y-93182419D02*
X164762306Y-93182419D01*
X164381353Y-94182419D02*
X164381353Y-93182419D01*
X163333735Y-94182419D02*
X163667068Y-93706228D01*
X163905163Y-94182419D02*
X163905163Y-93182419D01*
X163905163Y-93182419D02*
X163524211Y-93182419D01*
X163524211Y-93182419D02*
X163428973Y-93230038D01*
X163428973Y-93230038D02*
X163381354Y-93277657D01*
X163381354Y-93277657D02*
X163333735Y-93372895D01*
X163333735Y-93372895D02*
X163333735Y-93515752D01*
X163333735Y-93515752D02*
X163381354Y-93610990D01*
X163381354Y-93610990D02*
X163428973Y-93658609D01*
X163428973Y-93658609D02*
X163524211Y-93706228D01*
X163524211Y-93706228D02*
X163905163Y-93706228D01*
X162905163Y-93658609D02*
X162571830Y-93658609D01*
X162428973Y-94182419D02*
X162905163Y-94182419D01*
X162905163Y-94182419D02*
X162905163Y-93182419D01*
X162905163Y-93182419D02*
X162428973Y-93182419D01*
X162238497Y-94277657D02*
X161476592Y-94277657D01*
X161048020Y-93182419D02*
X160857544Y-93182419D01*
X160857544Y-93182419D02*
X160762306Y-93230038D01*
X160762306Y-93230038D02*
X160667068Y-93325276D01*
X160667068Y-93325276D02*
X160619449Y-93515752D01*
X160619449Y-93515752D02*
X160619449Y-93849085D01*
X160619449Y-93849085D02*
X160667068Y-94039561D01*
X160667068Y-94039561D02*
X160762306Y-94134800D01*
X160762306Y-94134800D02*
X160857544Y-94182419D01*
X160857544Y-94182419D02*
X161048020Y-94182419D01*
X161048020Y-94182419D02*
X161143258Y-94134800D01*
X161143258Y-94134800D02*
X161238496Y-94039561D01*
X161238496Y-94039561D02*
X161286115Y-93849085D01*
X161286115Y-93849085D02*
X161286115Y-93515752D01*
X161286115Y-93515752D02*
X161238496Y-93325276D01*
X161238496Y-93325276D02*
X161143258Y-93230038D01*
X161143258Y-93230038D02*
X161048020Y-93182419D01*
X160190877Y-93182419D02*
X160190877Y-93991942D01*
X160190877Y-93991942D02*
X160143258Y-94087180D01*
X160143258Y-94087180D02*
X160095639Y-94134800D01*
X160095639Y-94134800D02*
X160000401Y-94182419D01*
X160000401Y-94182419D02*
X159809925Y-94182419D01*
X159809925Y-94182419D02*
X159714687Y-94134800D01*
X159714687Y-94134800D02*
X159667068Y-94087180D01*
X159667068Y-94087180D02*
X159619449Y-93991942D01*
X159619449Y-93991942D02*
X159619449Y-93182419D01*
X159286115Y-93182419D02*
X158714687Y-93182419D01*
X159000401Y-94182419D02*
X159000401Y-93182419D01*
X165702782Y-96158609D02*
X166036115Y-96158609D01*
X166036115Y-96682419D02*
X166036115Y-95682419D01*
X166036115Y-95682419D02*
X165559925Y-95682419D01*
X165178972Y-96682419D02*
X165178972Y-95682419D01*
X164131354Y-96682419D02*
X164464687Y-96206228D01*
X164702782Y-96682419D02*
X164702782Y-95682419D01*
X164702782Y-95682419D02*
X164321830Y-95682419D01*
X164321830Y-95682419D02*
X164226592Y-95730038D01*
X164226592Y-95730038D02*
X164178973Y-95777657D01*
X164178973Y-95777657D02*
X164131354Y-95872895D01*
X164131354Y-95872895D02*
X164131354Y-96015752D01*
X164131354Y-96015752D02*
X164178973Y-96110990D01*
X164178973Y-96110990D02*
X164226592Y-96158609D01*
X164226592Y-96158609D02*
X164321830Y-96206228D01*
X164321830Y-96206228D02*
X164702782Y-96206228D01*
X163702782Y-96158609D02*
X163369449Y-96158609D01*
X163226592Y-96682419D02*
X163702782Y-96682419D01*
X163702782Y-96682419D02*
X163702782Y-95682419D01*
X163702782Y-95682419D02*
X163226592Y-95682419D01*
X163036116Y-96777657D02*
X162274211Y-96777657D01*
X161702782Y-96158609D02*
X161559925Y-96206228D01*
X161559925Y-96206228D02*
X161512306Y-96253847D01*
X161512306Y-96253847D02*
X161464687Y-96349085D01*
X161464687Y-96349085D02*
X161464687Y-96491942D01*
X161464687Y-96491942D02*
X161512306Y-96587180D01*
X161512306Y-96587180D02*
X161559925Y-96634800D01*
X161559925Y-96634800D02*
X161655163Y-96682419D01*
X161655163Y-96682419D02*
X162036115Y-96682419D01*
X162036115Y-96682419D02*
X162036115Y-95682419D01*
X162036115Y-95682419D02*
X161702782Y-95682419D01*
X161702782Y-95682419D02*
X161607544Y-95730038D01*
X161607544Y-95730038D02*
X161559925Y-95777657D01*
X161559925Y-95777657D02*
X161512306Y-95872895D01*
X161512306Y-95872895D02*
X161512306Y-95968133D01*
X161512306Y-95968133D02*
X161559925Y-96063371D01*
X161559925Y-96063371D02*
X161607544Y-96110990D01*
X161607544Y-96110990D02*
X161702782Y-96158609D01*
X161702782Y-96158609D02*
X162036115Y-96158609D01*
X161036115Y-95682419D02*
X161036115Y-96491942D01*
X161036115Y-96491942D02*
X160988496Y-96587180D01*
X160988496Y-96587180D02*
X160940877Y-96634800D01*
X160940877Y-96634800D02*
X160845639Y-96682419D01*
X160845639Y-96682419D02*
X160655163Y-96682419D01*
X160655163Y-96682419D02*
X160559925Y-96634800D01*
X160559925Y-96634800D02*
X160512306Y-96587180D01*
X160512306Y-96587180D02*
X160464687Y-96491942D01*
X160464687Y-96491942D02*
X160464687Y-95682419D01*
X160131353Y-95682419D02*
X159559925Y-95682419D01*
X159845639Y-96682419D02*
X159845639Y-95682419D01*
X159226591Y-96587180D02*
X159178972Y-96634800D01*
X159178972Y-96634800D02*
X159226591Y-96682419D01*
X159226591Y-96682419D02*
X159274210Y-96634800D01*
X159274210Y-96634800D02*
X159226591Y-96587180D01*
X159226591Y-96587180D02*
X159226591Y-96682419D01*
X154428972Y-108182419D02*
X153857544Y-108182419D01*
X154143258Y-109182419D02*
X154143258Y-108182419D01*
X153333734Y-108182419D02*
X153143258Y-108182419D01*
X153143258Y-108182419D02*
X153048020Y-108230038D01*
X153048020Y-108230038D02*
X152952782Y-108325276D01*
X152952782Y-108325276D02*
X152905163Y-108515752D01*
X152905163Y-108515752D02*
X152905163Y-108849085D01*
X152905163Y-108849085D02*
X152952782Y-109039561D01*
X152952782Y-109039561D02*
X153048020Y-109134800D01*
X153048020Y-109134800D02*
X153143258Y-109182419D01*
X153143258Y-109182419D02*
X153333734Y-109182419D01*
X153333734Y-109182419D02*
X153428972Y-109134800D01*
X153428972Y-109134800D02*
X153524210Y-109039561D01*
X153524210Y-109039561D02*
X153571829Y-108849085D01*
X153571829Y-108849085D02*
X153571829Y-108515752D01*
X153571829Y-108515752D02*
X153524210Y-108325276D01*
X153524210Y-108325276D02*
X153428972Y-108230038D01*
X153428972Y-108230038D02*
X153333734Y-108182419D01*
X151714686Y-108658609D02*
X151381353Y-108658609D01*
X151238496Y-109182419D02*
X151714686Y-109182419D01*
X151714686Y-109182419D02*
X151714686Y-108182419D01*
X151714686Y-108182419D02*
X151238496Y-108182419D01*
X150905162Y-108182419D02*
X150238496Y-109182419D01*
X150238496Y-108182419D02*
X150905162Y-109182419D01*
X150000400Y-108182419D02*
X149428972Y-108182419D01*
X149714686Y-109182419D02*
X149714686Y-108182419D01*
X148428971Y-108182419D02*
X148190876Y-109182419D01*
X148190876Y-109182419D02*
X148000400Y-108468133D01*
X148000400Y-108468133D02*
X147809924Y-109182419D01*
X147809924Y-109182419D02*
X147571829Y-108182419D01*
X147238495Y-109134800D02*
X147095638Y-109182419D01*
X147095638Y-109182419D02*
X146857543Y-109182419D01*
X146857543Y-109182419D02*
X146762305Y-109134800D01*
X146762305Y-109134800D02*
X146714686Y-109087180D01*
X146714686Y-109087180D02*
X146667067Y-108991942D01*
X146667067Y-108991942D02*
X146667067Y-108896704D01*
X146667067Y-108896704D02*
X146714686Y-108801466D01*
X146714686Y-108801466D02*
X146762305Y-108753847D01*
X146762305Y-108753847D02*
X146857543Y-108706228D01*
X146857543Y-108706228D02*
X147048019Y-108658609D01*
X147048019Y-108658609D02*
X147143257Y-108610990D01*
X147143257Y-108610990D02*
X147190876Y-108563371D01*
X147190876Y-108563371D02*
X147238495Y-108468133D01*
X147238495Y-108468133D02*
X147238495Y-108372895D01*
X147238495Y-108372895D02*
X147190876Y-108277657D01*
X147190876Y-108277657D02*
X147143257Y-108230038D01*
X147143257Y-108230038D02*
X147048019Y-108182419D01*
X147048019Y-108182419D02*
X146809924Y-108182419D01*
X146809924Y-108182419D02*
X146667067Y-108230038D01*
X146286114Y-108277657D02*
X146238495Y-108230038D01*
X146238495Y-108230038D02*
X146143257Y-108182419D01*
X146143257Y-108182419D02*
X145905162Y-108182419D01*
X145905162Y-108182419D02*
X145809924Y-108230038D01*
X145809924Y-108230038D02*
X145762305Y-108277657D01*
X145762305Y-108277657D02*
X145714686Y-108372895D01*
X145714686Y-108372895D02*
X145714686Y-108468133D01*
X145714686Y-108468133D02*
X145762305Y-108610990D01*
X145762305Y-108610990D02*
X146333733Y-109182419D01*
X146333733Y-109182419D02*
X145714686Y-109182419D01*
X145143257Y-108610990D02*
X145238495Y-108563371D01*
X145238495Y-108563371D02*
X145286114Y-108515752D01*
X145286114Y-108515752D02*
X145333733Y-108420514D01*
X145333733Y-108420514D02*
X145333733Y-108372895D01*
X145333733Y-108372895D02*
X145286114Y-108277657D01*
X145286114Y-108277657D02*
X145238495Y-108230038D01*
X145238495Y-108230038D02*
X145143257Y-108182419D01*
X145143257Y-108182419D02*
X144952781Y-108182419D01*
X144952781Y-108182419D02*
X144857543Y-108230038D01*
X144857543Y-108230038D02*
X144809924Y-108277657D01*
X144809924Y-108277657D02*
X144762305Y-108372895D01*
X144762305Y-108372895D02*
X144762305Y-108420514D01*
X144762305Y-108420514D02*
X144809924Y-108515752D01*
X144809924Y-108515752D02*
X144857543Y-108563371D01*
X144857543Y-108563371D02*
X144952781Y-108610990D01*
X144952781Y-108610990D02*
X145143257Y-108610990D01*
X145143257Y-108610990D02*
X145238495Y-108658609D01*
X145238495Y-108658609D02*
X145286114Y-108706228D01*
X145286114Y-108706228D02*
X145333733Y-108801466D01*
X145333733Y-108801466D02*
X145333733Y-108991942D01*
X145333733Y-108991942D02*
X145286114Y-109087180D01*
X145286114Y-109087180D02*
X145238495Y-109134800D01*
X145238495Y-109134800D02*
X145143257Y-109182419D01*
X145143257Y-109182419D02*
X144952781Y-109182419D01*
X144952781Y-109182419D02*
X144857543Y-109134800D01*
X144857543Y-109134800D02*
X144809924Y-109087180D01*
X144809924Y-109087180D02*
X144762305Y-108991942D01*
X144762305Y-108991942D02*
X144762305Y-108801466D01*
X144762305Y-108801466D02*
X144809924Y-108706228D01*
X144809924Y-108706228D02*
X144857543Y-108658609D01*
X144857543Y-108658609D02*
X144952781Y-108610990D01*
X143809924Y-109182419D02*
X144381352Y-109182419D01*
X144095638Y-109182419D02*
X144095638Y-108182419D01*
X144095638Y-108182419D02*
X144190876Y-108325276D01*
X144190876Y-108325276D02*
X144286114Y-108420514D01*
X144286114Y-108420514D02*
X144381352Y-108468133D01*
X143428971Y-108277657D02*
X143381352Y-108230038D01*
X143381352Y-108230038D02*
X143286114Y-108182419D01*
X143286114Y-108182419D02*
X143048019Y-108182419D01*
X143048019Y-108182419D02*
X142952781Y-108230038D01*
X142952781Y-108230038D02*
X142905162Y-108277657D01*
X142905162Y-108277657D02*
X142857543Y-108372895D01*
X142857543Y-108372895D02*
X142857543Y-108468133D01*
X142857543Y-108468133D02*
X142905162Y-108610990D01*
X142905162Y-108610990D02*
X143476590Y-109182419D01*
X143476590Y-109182419D02*
X142857543Y-109182419D01*
X142095638Y-108658609D02*
X141952781Y-108706228D01*
X141952781Y-108706228D02*
X141905162Y-108753847D01*
X141905162Y-108753847D02*
X141857543Y-108849085D01*
X141857543Y-108849085D02*
X141857543Y-108991942D01*
X141857543Y-108991942D02*
X141905162Y-109087180D01*
X141905162Y-109087180D02*
X141952781Y-109134800D01*
X141952781Y-109134800D02*
X142048019Y-109182419D01*
X142048019Y-109182419D02*
X142428971Y-109182419D01*
X142428971Y-109182419D02*
X142428971Y-108182419D01*
X142428971Y-108182419D02*
X142095638Y-108182419D01*
X142095638Y-108182419D02*
X142000400Y-108230038D01*
X142000400Y-108230038D02*
X141952781Y-108277657D01*
X141952781Y-108277657D02*
X141905162Y-108372895D01*
X141905162Y-108372895D02*
X141905162Y-108468133D01*
X141905162Y-108468133D02*
X141952781Y-108563371D01*
X141952781Y-108563371D02*
X142000400Y-108610990D01*
X142000400Y-108610990D02*
X142095638Y-108658609D01*
X142095638Y-108658609D02*
X142428971Y-108658609D01*
X154000401Y-101813371D02*
X154048020Y-101765752D01*
X154048020Y-101765752D02*
X154143258Y-101622895D01*
X154143258Y-101622895D02*
X154190877Y-101527657D01*
X154190877Y-101527657D02*
X154238496Y-101384800D01*
X154238496Y-101384800D02*
X154286115Y-101146704D01*
X154286115Y-101146704D02*
X154286115Y-100956228D01*
X154286115Y-100956228D02*
X154238496Y-100718133D01*
X154238496Y-100718133D02*
X154190877Y-100575276D01*
X154190877Y-100575276D02*
X154143258Y-100480038D01*
X154143258Y-100480038D02*
X154048020Y-100337180D01*
X154048020Y-100337180D02*
X154000401Y-100289561D01*
X153428972Y-100432419D02*
X153333734Y-100432419D01*
X153333734Y-100432419D02*
X153238496Y-100480038D01*
X153238496Y-100480038D02*
X153190877Y-100527657D01*
X153190877Y-100527657D02*
X153143258Y-100622895D01*
X153143258Y-100622895D02*
X153095639Y-100813371D01*
X153095639Y-100813371D02*
X153095639Y-101051466D01*
X153095639Y-101051466D02*
X153143258Y-101241942D01*
X153143258Y-101241942D02*
X153190877Y-101337180D01*
X153190877Y-101337180D02*
X153238496Y-101384800D01*
X153238496Y-101384800D02*
X153333734Y-101432419D01*
X153333734Y-101432419D02*
X153428972Y-101432419D01*
X153428972Y-101432419D02*
X153524210Y-101384800D01*
X153524210Y-101384800D02*
X153571829Y-101337180D01*
X153571829Y-101337180D02*
X153619448Y-101241942D01*
X153619448Y-101241942D02*
X153667067Y-101051466D01*
X153667067Y-101051466D02*
X153667067Y-100813371D01*
X153667067Y-100813371D02*
X153619448Y-100622895D01*
X153619448Y-100622895D02*
X153571829Y-100527657D01*
X153571829Y-100527657D02*
X153524210Y-100480038D01*
X153524210Y-100480038D02*
X153428972Y-100432419D01*
X151905162Y-101051466D02*
X151143258Y-101051466D01*
X149428972Y-100432419D02*
X149905162Y-100432419D01*
X149905162Y-100432419D02*
X149952781Y-100908609D01*
X149952781Y-100908609D02*
X149905162Y-100860990D01*
X149905162Y-100860990D02*
X149809924Y-100813371D01*
X149809924Y-100813371D02*
X149571829Y-100813371D01*
X149571829Y-100813371D02*
X149476591Y-100860990D01*
X149476591Y-100860990D02*
X149428972Y-100908609D01*
X149428972Y-100908609D02*
X149381353Y-101003847D01*
X149381353Y-101003847D02*
X149381353Y-101241942D01*
X149381353Y-101241942D02*
X149428972Y-101337180D01*
X149428972Y-101337180D02*
X149476591Y-101384800D01*
X149476591Y-101384800D02*
X149571829Y-101432419D01*
X149571829Y-101432419D02*
X149809924Y-101432419D01*
X149809924Y-101432419D02*
X149905162Y-101384800D01*
X149905162Y-101384800D02*
X149952781Y-101337180D01*
X148333733Y-100432419D02*
X148000400Y-101432419D01*
X148000400Y-101432419D02*
X147667067Y-100432419D01*
X147333733Y-101432419D02*
X147333733Y-100432419D01*
X147333733Y-100432419D02*
X147095638Y-100432419D01*
X147095638Y-100432419D02*
X146952781Y-100480038D01*
X146952781Y-100480038D02*
X146857543Y-100575276D01*
X146857543Y-100575276D02*
X146809924Y-100670514D01*
X146809924Y-100670514D02*
X146762305Y-100860990D01*
X146762305Y-100860990D02*
X146762305Y-101003847D01*
X146762305Y-101003847D02*
X146809924Y-101194323D01*
X146809924Y-101194323D02*
X146857543Y-101289561D01*
X146857543Y-101289561D02*
X146952781Y-101384800D01*
X146952781Y-101384800D02*
X147095638Y-101432419D01*
X147095638Y-101432419D02*
X147333733Y-101432419D01*
X145762305Y-101337180D02*
X145809924Y-101384800D01*
X145809924Y-101384800D02*
X145952781Y-101432419D01*
X145952781Y-101432419D02*
X146048019Y-101432419D01*
X146048019Y-101432419D02*
X146190876Y-101384800D01*
X146190876Y-101384800D02*
X146286114Y-101289561D01*
X146286114Y-101289561D02*
X146333733Y-101194323D01*
X146333733Y-101194323D02*
X146381352Y-101003847D01*
X146381352Y-101003847D02*
X146381352Y-100860990D01*
X146381352Y-100860990D02*
X146333733Y-100670514D01*
X146333733Y-100670514D02*
X146286114Y-100575276D01*
X146286114Y-100575276D02*
X146190876Y-100480038D01*
X146190876Y-100480038D02*
X146048019Y-100432419D01*
X146048019Y-100432419D02*
X145952781Y-100432419D01*
X145952781Y-100432419D02*
X145809924Y-100480038D01*
X145809924Y-100480038D02*
X145762305Y-100527657D01*
X145428971Y-101813371D02*
X145381352Y-101765752D01*
X145381352Y-101765752D02*
X145286114Y-101622895D01*
X145286114Y-101622895D02*
X145238495Y-101527657D01*
X145238495Y-101527657D02*
X145190876Y-101384800D01*
X145190876Y-101384800D02*
X145143257Y-101146704D01*
X145143257Y-101146704D02*
X145143257Y-100956228D01*
X145143257Y-100956228D02*
X145190876Y-100718133D01*
X145190876Y-100718133D02*
X145238495Y-100575276D01*
X145238495Y-100575276D02*
X145286114Y-100480038D01*
X145286114Y-100480038D02*
X145381352Y-100337180D01*
X145381352Y-100337180D02*
X145428971Y-100289561D01*
X166786115Y-99182419D02*
X166786115Y-98182419D01*
X166786115Y-98182419D02*
X166548020Y-98182419D01*
X166548020Y-98182419D02*
X166405163Y-98230038D01*
X166405163Y-98230038D02*
X166309925Y-98325276D01*
X166309925Y-98325276D02*
X166262306Y-98420514D01*
X166262306Y-98420514D02*
X166214687Y-98610990D01*
X166214687Y-98610990D02*
X166214687Y-98753847D01*
X166214687Y-98753847D02*
X166262306Y-98944323D01*
X166262306Y-98944323D02*
X166309925Y-99039561D01*
X166309925Y-99039561D02*
X166405163Y-99134800D01*
X166405163Y-99134800D02*
X166548020Y-99182419D01*
X166548020Y-99182419D02*
X166786115Y-99182419D01*
X165786115Y-99182419D02*
X165786115Y-98182419D01*
X164786116Y-98230038D02*
X164881354Y-98182419D01*
X164881354Y-98182419D02*
X165024211Y-98182419D01*
X165024211Y-98182419D02*
X165167068Y-98230038D01*
X165167068Y-98230038D02*
X165262306Y-98325276D01*
X165262306Y-98325276D02*
X165309925Y-98420514D01*
X165309925Y-98420514D02*
X165357544Y-98610990D01*
X165357544Y-98610990D02*
X165357544Y-98753847D01*
X165357544Y-98753847D02*
X165309925Y-98944323D01*
X165309925Y-98944323D02*
X165262306Y-99039561D01*
X165262306Y-99039561D02*
X165167068Y-99134800D01*
X165167068Y-99134800D02*
X165024211Y-99182419D01*
X165024211Y-99182419D02*
X164928973Y-99182419D01*
X164928973Y-99182419D02*
X164786116Y-99134800D01*
X164786116Y-99134800D02*
X164738497Y-99087180D01*
X164738497Y-99087180D02*
X164738497Y-98753847D01*
X164738497Y-98753847D02*
X164928973Y-98753847D01*
X163738497Y-99182419D02*
X164071830Y-98706228D01*
X164309925Y-99182419D02*
X164309925Y-98182419D01*
X164309925Y-98182419D02*
X163928973Y-98182419D01*
X163928973Y-98182419D02*
X163833735Y-98230038D01*
X163833735Y-98230038D02*
X163786116Y-98277657D01*
X163786116Y-98277657D02*
X163738497Y-98372895D01*
X163738497Y-98372895D02*
X163738497Y-98515752D01*
X163738497Y-98515752D02*
X163786116Y-98610990D01*
X163786116Y-98610990D02*
X163833735Y-98658609D01*
X163833735Y-98658609D02*
X163928973Y-98706228D01*
X163928973Y-98706228D02*
X164309925Y-98706228D01*
X163357544Y-98896704D02*
X162881354Y-98896704D01*
X163452782Y-99182419D02*
X163119449Y-98182419D01*
X163119449Y-98182419D02*
X162786116Y-99182419D01*
X162595639Y-98182419D02*
X162024211Y-98182419D01*
X162309925Y-99182419D02*
X162309925Y-98182419D01*
X161690877Y-98658609D02*
X161357544Y-98658609D01*
X161214687Y-99182419D02*
X161690877Y-99182419D01*
X161690877Y-99182419D02*
X161690877Y-98182419D01*
X161690877Y-98182419D02*
X161214687Y-98182419D01*
X160833734Y-99134800D02*
X160690877Y-99182419D01*
X160690877Y-99182419D02*
X160452782Y-99182419D01*
X160452782Y-99182419D02*
X160357544Y-99134800D01*
X160357544Y-99134800D02*
X160309925Y-99087180D01*
X160309925Y-99087180D02*
X160262306Y-98991942D01*
X160262306Y-98991942D02*
X160262306Y-98896704D01*
X160262306Y-98896704D02*
X160309925Y-98801466D01*
X160309925Y-98801466D02*
X160357544Y-98753847D01*
X160357544Y-98753847D02*
X160452782Y-98706228D01*
X160452782Y-98706228D02*
X160643258Y-98658609D01*
X160643258Y-98658609D02*
X160738496Y-98610990D01*
X160738496Y-98610990D02*
X160786115Y-98563371D01*
X160786115Y-98563371D02*
X160833734Y-98468133D01*
X160833734Y-98468133D02*
X160833734Y-98372895D01*
X160833734Y-98372895D02*
X160786115Y-98277657D01*
X160786115Y-98277657D02*
X160738496Y-98230038D01*
X160738496Y-98230038D02*
X160643258Y-98182419D01*
X160643258Y-98182419D02*
X160405163Y-98182419D01*
X160405163Y-98182419D02*
X160262306Y-98230038D01*
X159833734Y-98658609D02*
X159500401Y-98658609D01*
X159357544Y-99182419D02*
X159833734Y-99182419D01*
X159833734Y-99182419D02*
X159833734Y-98182419D01*
X159833734Y-98182419D02*
X159357544Y-98182419D01*
X158452782Y-99182419D02*
X158928972Y-99182419D01*
X158928972Y-99182419D02*
X158928972Y-98182419D01*
X154428972Y-110932419D02*
X153857544Y-110932419D01*
X154143258Y-111932419D02*
X154143258Y-110932419D01*
X153333734Y-110932419D02*
X153143258Y-110932419D01*
X153143258Y-110932419D02*
X153048020Y-110980038D01*
X153048020Y-110980038D02*
X152952782Y-111075276D01*
X152952782Y-111075276D02*
X152905163Y-111265752D01*
X152905163Y-111265752D02*
X152905163Y-111599085D01*
X152905163Y-111599085D02*
X152952782Y-111789561D01*
X152952782Y-111789561D02*
X153048020Y-111884800D01*
X153048020Y-111884800D02*
X153143258Y-111932419D01*
X153143258Y-111932419D02*
X153333734Y-111932419D01*
X153333734Y-111932419D02*
X153428972Y-111884800D01*
X153428972Y-111884800D02*
X153524210Y-111789561D01*
X153524210Y-111789561D02*
X153571829Y-111599085D01*
X153571829Y-111599085D02*
X153571829Y-111265752D01*
X153571829Y-111265752D02*
X153524210Y-111075276D01*
X153524210Y-111075276D02*
X153428972Y-110980038D01*
X153428972Y-110980038D02*
X153333734Y-110932419D01*
X151714686Y-111408609D02*
X151381353Y-111408609D01*
X151238496Y-111932419D02*
X151714686Y-111932419D01*
X151714686Y-111932419D02*
X151714686Y-110932419D01*
X151714686Y-110932419D02*
X151238496Y-110932419D01*
X150905162Y-110932419D02*
X150238496Y-111932419D01*
X150238496Y-110932419D02*
X150905162Y-111932419D01*
X150000400Y-110932419D02*
X149428972Y-110932419D01*
X149714686Y-111932419D02*
X149714686Y-110932419D01*
X148428971Y-110932419D02*
X148190876Y-111932419D01*
X148190876Y-111932419D02*
X148000400Y-111218133D01*
X148000400Y-111218133D02*
X147809924Y-111932419D01*
X147809924Y-111932419D02*
X147571829Y-110932419D01*
X147238495Y-111884800D02*
X147095638Y-111932419D01*
X147095638Y-111932419D02*
X146857543Y-111932419D01*
X146857543Y-111932419D02*
X146762305Y-111884800D01*
X146762305Y-111884800D02*
X146714686Y-111837180D01*
X146714686Y-111837180D02*
X146667067Y-111741942D01*
X146667067Y-111741942D02*
X146667067Y-111646704D01*
X146667067Y-111646704D02*
X146714686Y-111551466D01*
X146714686Y-111551466D02*
X146762305Y-111503847D01*
X146762305Y-111503847D02*
X146857543Y-111456228D01*
X146857543Y-111456228D02*
X147048019Y-111408609D01*
X147048019Y-111408609D02*
X147143257Y-111360990D01*
X147143257Y-111360990D02*
X147190876Y-111313371D01*
X147190876Y-111313371D02*
X147238495Y-111218133D01*
X147238495Y-111218133D02*
X147238495Y-111122895D01*
X147238495Y-111122895D02*
X147190876Y-111027657D01*
X147190876Y-111027657D02*
X147143257Y-110980038D01*
X147143257Y-110980038D02*
X147048019Y-110932419D01*
X147048019Y-110932419D02*
X146809924Y-110932419D01*
X146809924Y-110932419D02*
X146667067Y-110980038D01*
X146286114Y-111027657D02*
X146238495Y-110980038D01*
X146238495Y-110980038D02*
X146143257Y-110932419D01*
X146143257Y-110932419D02*
X145905162Y-110932419D01*
X145905162Y-110932419D02*
X145809924Y-110980038D01*
X145809924Y-110980038D02*
X145762305Y-111027657D01*
X145762305Y-111027657D02*
X145714686Y-111122895D01*
X145714686Y-111122895D02*
X145714686Y-111218133D01*
X145714686Y-111218133D02*
X145762305Y-111360990D01*
X145762305Y-111360990D02*
X146333733Y-111932419D01*
X146333733Y-111932419D02*
X145714686Y-111932419D01*
X145143257Y-111360990D02*
X145238495Y-111313371D01*
X145238495Y-111313371D02*
X145286114Y-111265752D01*
X145286114Y-111265752D02*
X145333733Y-111170514D01*
X145333733Y-111170514D02*
X145333733Y-111122895D01*
X145333733Y-111122895D02*
X145286114Y-111027657D01*
X145286114Y-111027657D02*
X145238495Y-110980038D01*
X145238495Y-110980038D02*
X145143257Y-110932419D01*
X145143257Y-110932419D02*
X144952781Y-110932419D01*
X144952781Y-110932419D02*
X144857543Y-110980038D01*
X144857543Y-110980038D02*
X144809924Y-111027657D01*
X144809924Y-111027657D02*
X144762305Y-111122895D01*
X144762305Y-111122895D02*
X144762305Y-111170514D01*
X144762305Y-111170514D02*
X144809924Y-111265752D01*
X144809924Y-111265752D02*
X144857543Y-111313371D01*
X144857543Y-111313371D02*
X144952781Y-111360990D01*
X144952781Y-111360990D02*
X145143257Y-111360990D01*
X145143257Y-111360990D02*
X145238495Y-111408609D01*
X145238495Y-111408609D02*
X145286114Y-111456228D01*
X145286114Y-111456228D02*
X145333733Y-111551466D01*
X145333733Y-111551466D02*
X145333733Y-111741942D01*
X145333733Y-111741942D02*
X145286114Y-111837180D01*
X145286114Y-111837180D02*
X145238495Y-111884800D01*
X145238495Y-111884800D02*
X145143257Y-111932419D01*
X145143257Y-111932419D02*
X144952781Y-111932419D01*
X144952781Y-111932419D02*
X144857543Y-111884800D01*
X144857543Y-111884800D02*
X144809924Y-111837180D01*
X144809924Y-111837180D02*
X144762305Y-111741942D01*
X144762305Y-111741942D02*
X144762305Y-111551466D01*
X144762305Y-111551466D02*
X144809924Y-111456228D01*
X144809924Y-111456228D02*
X144857543Y-111408609D01*
X144857543Y-111408609D02*
X144952781Y-111360990D01*
X143809924Y-111932419D02*
X144381352Y-111932419D01*
X144095638Y-111932419D02*
X144095638Y-110932419D01*
X144095638Y-110932419D02*
X144190876Y-111075276D01*
X144190876Y-111075276D02*
X144286114Y-111170514D01*
X144286114Y-111170514D02*
X144381352Y-111218133D01*
X143428971Y-111027657D02*
X143381352Y-110980038D01*
X143381352Y-110980038D02*
X143286114Y-110932419D01*
X143286114Y-110932419D02*
X143048019Y-110932419D01*
X143048019Y-110932419D02*
X142952781Y-110980038D01*
X142952781Y-110980038D02*
X142905162Y-111027657D01*
X142905162Y-111027657D02*
X142857543Y-111122895D01*
X142857543Y-111122895D02*
X142857543Y-111218133D01*
X142857543Y-111218133D02*
X142905162Y-111360990D01*
X142905162Y-111360990D02*
X143476590Y-111932419D01*
X143476590Y-111932419D02*
X142857543Y-111932419D01*
X142095638Y-111408609D02*
X141952781Y-111456228D01*
X141952781Y-111456228D02*
X141905162Y-111503847D01*
X141905162Y-111503847D02*
X141857543Y-111599085D01*
X141857543Y-111599085D02*
X141857543Y-111741942D01*
X141857543Y-111741942D02*
X141905162Y-111837180D01*
X141905162Y-111837180D02*
X141952781Y-111884800D01*
X141952781Y-111884800D02*
X142048019Y-111932419D01*
X142048019Y-111932419D02*
X142428971Y-111932419D01*
X142428971Y-111932419D02*
X142428971Y-110932419D01*
X142428971Y-110932419D02*
X142095638Y-110932419D01*
X142095638Y-110932419D02*
X142000400Y-110980038D01*
X142000400Y-110980038D02*
X141952781Y-111027657D01*
X141952781Y-111027657D02*
X141905162Y-111122895D01*
X141905162Y-111122895D02*
X141905162Y-111218133D01*
X141905162Y-111218133D02*
X141952781Y-111313371D01*
X141952781Y-111313371D02*
X142000400Y-111360990D01*
X142000400Y-111360990D02*
X142095638Y-111408609D01*
X142095638Y-111408609D02*
X142428971Y-111408609D01*
X154678972Y-95432419D02*
X154107544Y-95432419D01*
X154393258Y-96432419D02*
X154393258Y-95432419D01*
X153583734Y-95432419D02*
X153393258Y-95432419D01*
X153393258Y-95432419D02*
X153298020Y-95480038D01*
X153298020Y-95480038D02*
X153202782Y-95575276D01*
X153202782Y-95575276D02*
X153155163Y-95765752D01*
X153155163Y-95765752D02*
X153155163Y-96099085D01*
X153155163Y-96099085D02*
X153202782Y-96289561D01*
X153202782Y-96289561D02*
X153298020Y-96384800D01*
X153298020Y-96384800D02*
X153393258Y-96432419D01*
X153393258Y-96432419D02*
X153583734Y-96432419D01*
X153583734Y-96432419D02*
X153678972Y-96384800D01*
X153678972Y-96384800D02*
X153774210Y-96289561D01*
X153774210Y-96289561D02*
X153821829Y-96099085D01*
X153821829Y-96099085D02*
X153821829Y-95765752D01*
X153821829Y-95765752D02*
X153774210Y-95575276D01*
X153774210Y-95575276D02*
X153678972Y-95480038D01*
X153678972Y-95480038D02*
X153583734Y-95432419D01*
X151678972Y-95432419D02*
X151678972Y-96146704D01*
X151678972Y-96146704D02*
X151726591Y-96289561D01*
X151726591Y-96289561D02*
X151821829Y-96384800D01*
X151821829Y-96384800D02*
X151964686Y-96432419D01*
X151964686Y-96432419D02*
X152059924Y-96432419D01*
X151012305Y-95432419D02*
X150821829Y-95432419D01*
X150821829Y-95432419D02*
X150726591Y-95480038D01*
X150726591Y-95480038D02*
X150631353Y-95575276D01*
X150631353Y-95575276D02*
X150583734Y-95765752D01*
X150583734Y-95765752D02*
X150583734Y-96099085D01*
X150583734Y-96099085D02*
X150631353Y-96289561D01*
X150631353Y-96289561D02*
X150726591Y-96384800D01*
X150726591Y-96384800D02*
X150821829Y-96432419D01*
X150821829Y-96432419D02*
X151012305Y-96432419D01*
X151012305Y-96432419D02*
X151107543Y-96384800D01*
X151107543Y-96384800D02*
X151202781Y-96289561D01*
X151202781Y-96289561D02*
X151250400Y-96099085D01*
X151250400Y-96099085D02*
X151250400Y-95765752D01*
X151250400Y-95765752D02*
X151202781Y-95575276D01*
X151202781Y-95575276D02*
X151107543Y-95480038D01*
X151107543Y-95480038D02*
X151012305Y-95432419D01*
X149964686Y-95956228D02*
X149964686Y-96432419D01*
X150298019Y-95432419D02*
X149964686Y-95956228D01*
X149964686Y-95956228D02*
X149631353Y-95432419D01*
X149345638Y-96384800D02*
X149202781Y-96432419D01*
X149202781Y-96432419D02*
X148964686Y-96432419D01*
X148964686Y-96432419D02*
X148869448Y-96384800D01*
X148869448Y-96384800D02*
X148821829Y-96337180D01*
X148821829Y-96337180D02*
X148774210Y-96241942D01*
X148774210Y-96241942D02*
X148774210Y-96146704D01*
X148774210Y-96146704D02*
X148821829Y-96051466D01*
X148821829Y-96051466D02*
X148869448Y-96003847D01*
X148869448Y-96003847D02*
X148964686Y-95956228D01*
X148964686Y-95956228D02*
X149155162Y-95908609D01*
X149155162Y-95908609D02*
X149250400Y-95860990D01*
X149250400Y-95860990D02*
X149298019Y-95813371D01*
X149298019Y-95813371D02*
X149345638Y-95718133D01*
X149345638Y-95718133D02*
X149345638Y-95622895D01*
X149345638Y-95622895D02*
X149298019Y-95527657D01*
X149298019Y-95527657D02*
X149250400Y-95480038D01*
X149250400Y-95480038D02*
X149155162Y-95432419D01*
X149155162Y-95432419D02*
X148917067Y-95432419D01*
X148917067Y-95432419D02*
X148774210Y-95480038D01*
X148488495Y-95432419D02*
X147917067Y-95432419D01*
X148202781Y-96432419D02*
X148202781Y-95432419D01*
X147583733Y-96432419D02*
X147583733Y-95432419D01*
X146536115Y-96337180D02*
X146583734Y-96384800D01*
X146583734Y-96384800D02*
X146726591Y-96432419D01*
X146726591Y-96432419D02*
X146821829Y-96432419D01*
X146821829Y-96432419D02*
X146964686Y-96384800D01*
X146964686Y-96384800D02*
X147059924Y-96289561D01*
X147059924Y-96289561D02*
X147107543Y-96194323D01*
X147107543Y-96194323D02*
X147155162Y-96003847D01*
X147155162Y-96003847D02*
X147155162Y-95860990D01*
X147155162Y-95860990D02*
X147107543Y-95670514D01*
X147107543Y-95670514D02*
X147059924Y-95575276D01*
X147059924Y-95575276D02*
X146964686Y-95480038D01*
X146964686Y-95480038D02*
X146821829Y-95432419D01*
X146821829Y-95432419D02*
X146726591Y-95432419D01*
X146726591Y-95432419D02*
X146583734Y-95480038D01*
X146583734Y-95480038D02*
X146536115Y-95527657D01*
X146107543Y-96432419D02*
X146107543Y-95432419D01*
X145536115Y-96432419D02*
X145964686Y-95860990D01*
X145536115Y-95432419D02*
X146107543Y-96003847D01*
X144012305Y-95908609D02*
X144345638Y-95908609D01*
X144345638Y-96432419D02*
X144345638Y-95432419D01*
X144345638Y-95432419D02*
X143869448Y-95432419D01*
X143488495Y-96432419D02*
X143488495Y-95432419D01*
X142440877Y-96432419D02*
X142774210Y-95956228D01*
X143012305Y-96432419D02*
X143012305Y-95432419D01*
X143012305Y-95432419D02*
X142631353Y-95432419D01*
X142631353Y-95432419D02*
X142536115Y-95480038D01*
X142536115Y-95480038D02*
X142488496Y-95527657D01*
X142488496Y-95527657D02*
X142440877Y-95622895D01*
X142440877Y-95622895D02*
X142440877Y-95765752D01*
X142440877Y-95765752D02*
X142488496Y-95860990D01*
X142488496Y-95860990D02*
X142536115Y-95908609D01*
X142536115Y-95908609D02*
X142631353Y-95956228D01*
X142631353Y-95956228D02*
X143012305Y-95956228D01*
X142012305Y-95908609D02*
X141678972Y-95908609D01*
X141536115Y-96432419D02*
X142012305Y-96432419D01*
X142012305Y-96432419D02*
X142012305Y-95432419D01*
X142012305Y-95432419D02*
X141536115Y-95432419D01*
X140012305Y-95908609D02*
X139869448Y-95956228D01*
X139869448Y-95956228D02*
X139821829Y-96003847D01*
X139821829Y-96003847D02*
X139774210Y-96099085D01*
X139774210Y-96099085D02*
X139774210Y-96241942D01*
X139774210Y-96241942D02*
X139821829Y-96337180D01*
X139821829Y-96337180D02*
X139869448Y-96384800D01*
X139869448Y-96384800D02*
X139964686Y-96432419D01*
X139964686Y-96432419D02*
X140345638Y-96432419D01*
X140345638Y-96432419D02*
X140345638Y-95432419D01*
X140345638Y-95432419D02*
X140012305Y-95432419D01*
X140012305Y-95432419D02*
X139917067Y-95480038D01*
X139917067Y-95480038D02*
X139869448Y-95527657D01*
X139869448Y-95527657D02*
X139821829Y-95622895D01*
X139821829Y-95622895D02*
X139821829Y-95718133D01*
X139821829Y-95718133D02*
X139869448Y-95813371D01*
X139869448Y-95813371D02*
X139917067Y-95860990D01*
X139917067Y-95860990D02*
X140012305Y-95908609D01*
X140012305Y-95908609D02*
X140345638Y-95908609D01*
X139345638Y-95432419D02*
X139345638Y-96241942D01*
X139345638Y-96241942D02*
X139298019Y-96337180D01*
X139298019Y-96337180D02*
X139250400Y-96384800D01*
X139250400Y-96384800D02*
X139155162Y-96432419D01*
X139155162Y-96432419D02*
X138964686Y-96432419D01*
X138964686Y-96432419D02*
X138869448Y-96384800D01*
X138869448Y-96384800D02*
X138821829Y-96337180D01*
X138821829Y-96337180D02*
X138774210Y-96241942D01*
X138774210Y-96241942D02*
X138774210Y-95432419D01*
X138440876Y-95432419D02*
X137869448Y-95432419D01*
X138155162Y-96432419D02*
X138155162Y-95432419D01*
X137678971Y-95432419D02*
X137107543Y-95432419D01*
X137393257Y-96432419D02*
X137393257Y-95432419D01*
X136583733Y-95432419D02*
X136393257Y-95432419D01*
X136393257Y-95432419D02*
X136298019Y-95480038D01*
X136298019Y-95480038D02*
X136202781Y-95575276D01*
X136202781Y-95575276D02*
X136155162Y-95765752D01*
X136155162Y-95765752D02*
X136155162Y-96099085D01*
X136155162Y-96099085D02*
X136202781Y-96289561D01*
X136202781Y-96289561D02*
X136298019Y-96384800D01*
X136298019Y-96384800D02*
X136393257Y-96432419D01*
X136393257Y-96432419D02*
X136583733Y-96432419D01*
X136583733Y-96432419D02*
X136678971Y-96384800D01*
X136678971Y-96384800D02*
X136774209Y-96289561D01*
X136774209Y-96289561D02*
X136821828Y-96099085D01*
X136821828Y-96099085D02*
X136821828Y-95765752D01*
X136821828Y-95765752D02*
X136774209Y-95575276D01*
X136774209Y-95575276D02*
X136678971Y-95480038D01*
X136678971Y-95480038D02*
X136583733Y-95432419D01*
X135726590Y-96432419D02*
X135726590Y-95432419D01*
X135726590Y-95432419D02*
X135155162Y-96432419D01*
X135155162Y-96432419D02*
X135155162Y-95432419D01*
M02*
