%TF.GenerationSoftware,KiCad,Pcbnew,8.0.7*%
%TF.CreationDate,2025-01-21T12:24:59-05:00*%
%TF.ProjectId,TinyAFireController,54696e79-4146-4697-9265-436f6e74726f,rev?*%
%TF.SameCoordinates,Original*%
%TF.FileFunction,Copper,L1,Top*%
%TF.FilePolarity,Positive*%
%FSLAX46Y46*%
G04 Gerber Fmt 4.6, Leading zero omitted, Abs format (unit mm)*
G04 Created by KiCad (PCBNEW 8.0.7) date 2025-01-21 12:24:59*
%MOMM*%
%LPD*%
G01*
G04 APERTURE LIST*
G04 Aperture macros list*
%AMRoundRect*
0 Rectangle with rounded corners*
0 $1 Rounding radius*
0 $2 $3 $4 $5 $6 $7 $8 $9 X,Y pos of 4 corners*
0 Add a 4 corners polygon primitive as box body*
4,1,4,$2,$3,$4,$5,$6,$7,$8,$9,$2,$3,0*
0 Add four circle primitives for the rounded corners*
1,1,$1+$1,$2,$3*
1,1,$1+$1,$4,$5*
1,1,$1+$1,$6,$7*
1,1,$1+$1,$8,$9*
0 Add four rect primitives between the rounded corners*
20,1,$1+$1,$2,$3,$4,$5,0*
20,1,$1+$1,$4,$5,$6,$7,0*
20,1,$1+$1,$6,$7,$8,$9,0*
20,1,$1+$1,$8,$9,$2,$3,0*%
G04 Aperture macros list end*
%TA.AperFunction,ComponentPad*%
%ADD10R,1.700000X1.700000*%
%TD*%
%TA.AperFunction,ComponentPad*%
%ADD11O,1.700000X1.700000*%
%TD*%
%TA.AperFunction,SMDPad,CuDef*%
%ADD12R,1.500000X0.900000*%
%TD*%
%TA.AperFunction,SMDPad,CuDef*%
%ADD13RoundRect,0.250000X-0.262500X-0.450000X0.262500X-0.450000X0.262500X0.450000X-0.262500X0.450000X0*%
%TD*%
%TA.AperFunction,SMDPad,CuDef*%
%ADD14RoundRect,0.250000X-0.250000X-0.475000X0.250000X-0.475000X0.250000X0.475000X-0.250000X0.475000X0*%
%TD*%
%TA.AperFunction,SMDPad,CuDef*%
%ADD15RoundRect,0.225000X-0.225000X-0.375000X0.225000X-0.375000X0.225000X0.375000X-0.225000X0.375000X0*%
%TD*%
%TA.AperFunction,SMDPad,CuDef*%
%ADD16R,1.700000X0.650000*%
%TD*%
%TA.AperFunction,ViaPad*%
%ADD17C,0.600000*%
%TD*%
%TA.AperFunction,Conductor*%
%ADD18C,0.200000*%
%TD*%
G04 APERTURE END LIST*
D10*
%TO.P,J1,1,Pin_1*%
%TO.N,VCC*%
X137420000Y-113850000D03*
D11*
%TO.P,J1,2,Pin_2*%
%TO.N,GND*%
X137420000Y-111310000D03*
%TD*%
D12*
%TO.P,D3,1,VDD*%
%TO.N,VCC*%
X144130000Y-110420000D03*
%TO.P,D3,2,DOUT*%
%TO.N,unconnected-(D3-DOUT-Pad2)*%
X144130000Y-113720000D03*
%TO.P,D3,3,VSS*%
%TO.N,GND*%
X149030000Y-113720000D03*
%TO.P,D3,4,DIN*%
%TO.N,/DATA IN*%
X149030000Y-110420000D03*
%TD*%
D10*
%TO.P,J2,1,Pin_1*%
%TO.N,/{slash}FIRE_OUT*%
X156470000Y-93520000D03*
D11*
%TO.P,J2,2,Pin_2*%
%TO.N,/FIRE_BUTTON*%
X156470000Y-96060000D03*
%TO.P,J2,3,Pin_3*%
%TO.N,/DIG_RATE_SEL*%
X156470000Y-98600000D03*
%TO.P,J2,4,Pin_4*%
%TO.N,/ANA_RATE_IN (0-5V)*%
X156470000Y-101140000D03*
%TO.P,J2,5,Pin_5*%
%TO.N,/FIRE_LED-*%
X156470000Y-103680000D03*
%TO.P,J2,6,Pin_6*%
%TO.N,VCC*%
X156470000Y-106220000D03*
%TO.P,J2,7,Pin_7*%
%TO.N,/DATA IN*%
X156470000Y-108760000D03*
%TO.P,J2,8,Pin_8*%
%TO.N,VCC*%
X156470000Y-111300000D03*
%TO.P,J2,9,Pin_9*%
%TO.N,GND*%
X156470000Y-113840000D03*
%TD*%
D13*
%TO.P,R1,1*%
%TO.N,VCC*%
X148930000Y-97330000D03*
%TO.P,R1,2*%
%TO.N,/{slash}FIRE_OUT*%
X150755000Y-97330000D03*
%TD*%
D14*
%TO.P,C3,1*%
%TO.N,VCC*%
X148892500Y-94790000D03*
%TO.P,C3,2*%
%TO.N,GND*%
X150792500Y-94790000D03*
%TD*%
%TO.P,C2,1*%
%TO.N,VCC*%
X148892500Y-92250000D03*
%TO.P,C2,2*%
%TO.N,GND*%
X150792500Y-92250000D03*
%TD*%
D13*
%TO.P,R2,1*%
%TO.N,/ *%
X136562500Y-100015000D03*
%TO.P,R2,2*%
%TO.N,/FIRE_LED-*%
X138387500Y-100015000D03*
%TD*%
D14*
%TO.P,C1,1*%
%TO.N,VCC*%
X151075000Y-107490000D03*
%TO.P,C1,2*%
%TO.N,GND*%
X152975000Y-107490000D03*
%TD*%
D15*
%TO.P,D2,1,K*%
%TO.N,/ *%
X143860000Y-100010000D03*
%TO.P,D2,2,A*%
%TO.N,/{slash}FIRE_OUT*%
X147160000Y-100010000D03*
%TD*%
D16*
%TO.P,U1,1,PB5*%
%TO.N,unconnected-(U1-PB5-Pad1)*%
X136945000Y-92000000D03*
%TO.P,U1,2,PB3*%
%TO.N,/ANA_RATE_IN (0-5V)*%
X136945000Y-93270000D03*
%TO.P,U1,3,PB4*%
%TO.N,/DATA IN*%
X136945000Y-94540000D03*
%TO.P,U1,4,GND*%
%TO.N,GND*%
X136945000Y-95810000D03*
%TO.P,U1,5,AREF/PB0*%
%TO.N,/ *%
X144245000Y-95810000D03*
%TO.P,U1,6,PB1*%
%TO.N,/FIRE_BUTTON*%
X144245000Y-94540000D03*
%TO.P,U1,7,PB2/INT0/ADC1*%
%TO.N,/DIG_RATE_SEL*%
X144245000Y-93270000D03*
%TO.P,U1,8,VCC*%
%TO.N,VCC*%
X144245000Y-92000000D03*
%TD*%
D17*
%TO.N,GND*%
X153980700Y-107123200D03*
X147779500Y-113592700D03*
X150792500Y-93520000D03*
X138312000Y-96042600D03*
%TD*%
D18*
%TO.N,VCC*%
X157620100Y-109619900D02*
X157620100Y-106220000D01*
X144130000Y-110420000D02*
X145180100Y-110420000D01*
X156470000Y-106220000D02*
X157620100Y-106220000D01*
X146710600Y-100912400D02*
X146377200Y-100579000D01*
X148892500Y-97330000D02*
X148930000Y-97330000D01*
X148443600Y-97330000D02*
X148892500Y-97330000D01*
X156470000Y-111300000D02*
X156470000Y-111170200D01*
X148892500Y-94790000D02*
X148892500Y-97330000D01*
X156470000Y-106220000D02*
X152345000Y-106220000D01*
X156470000Y-110149900D02*
X157090100Y-110149900D01*
X156942500Y-97430000D02*
X155505600Y-97430000D01*
X146377200Y-100579000D02*
X146377200Y-99396400D01*
X157620100Y-106220000D02*
X157620100Y-98107600D01*
X144130000Y-110420000D02*
X142000100Y-110420000D01*
X148642500Y-92000000D02*
X148892500Y-92250000D01*
X152023200Y-100912400D02*
X146710600Y-100912400D01*
X148892500Y-92250000D02*
X148892500Y-94790000D01*
X157620100Y-98107600D02*
X156942500Y-97430000D01*
X142000100Y-110420000D02*
X138570100Y-113850000D01*
X157090100Y-110149900D02*
X157620100Y-109619900D01*
X137420000Y-113850000D02*
X138570100Y-113850000D01*
X156470000Y-111170200D02*
X145930300Y-111170200D01*
X155505600Y-97430000D02*
X152023200Y-100912400D01*
X145930300Y-111170200D02*
X145180100Y-110420000D01*
X152345000Y-106220000D02*
X151075000Y-107490000D01*
X156470000Y-111170200D02*
X156470000Y-110149900D01*
X146377200Y-99396400D02*
X148443600Y-97330000D01*
X144245000Y-92000000D02*
X148642500Y-92000000D01*
%TO.N,GND*%
X147779500Y-113592700D02*
X147852600Y-113592700D01*
X138312000Y-96042600D02*
X138095100Y-95825700D01*
X138095100Y-95825700D02*
X138095100Y-95810000D01*
X149030000Y-113720000D02*
X147979900Y-113720000D01*
X150792500Y-93520000D02*
X150792500Y-94790000D01*
X150792500Y-93520000D02*
X150792500Y-92250000D01*
X147852600Y-113592700D02*
X147979900Y-113720000D01*
X153341800Y-107123200D02*
X152975000Y-107490000D01*
X136945000Y-95810000D02*
X138095100Y-95810000D01*
X153980700Y-107123200D02*
X153341800Y-107123200D01*
%TO.N,/{slash}FIRE_OUT*%
X151509900Y-97330000D02*
X155319900Y-93520000D01*
X150755000Y-97330000D02*
X151509900Y-97330000D01*
X156470000Y-93520000D02*
X155319900Y-93520000D01*
X148075000Y-100010000D02*
X150755000Y-97330000D01*
X147160000Y-100010000D02*
X148075000Y-100010000D01*
%TO.N,/DATA IN*%
X135724500Y-100742400D02*
X144192100Y-109210000D01*
X149030000Y-110420000D02*
X150080100Y-110420000D01*
X135724500Y-94610400D02*
X135724500Y-100742400D01*
X146769900Y-109210000D02*
X147979900Y-110420000D01*
X156470000Y-108760000D02*
X151740100Y-108760000D01*
X136945000Y-94540000D02*
X135794900Y-94540000D01*
X147979900Y-110420000D02*
X149030000Y-110420000D01*
X144192100Y-109210000D02*
X146769900Y-109210000D01*
X151740100Y-108760000D02*
X150080100Y-110420000D01*
X135794900Y-94540000D02*
X135724500Y-94610400D01*
%TO.N,/FIRE_BUTTON*%
X143094900Y-91519500D02*
X143399500Y-91214900D01*
X144245000Y-94540000D02*
X143094900Y-94540000D01*
X156470000Y-96060000D02*
X156470000Y-94909900D01*
X156302600Y-91214900D02*
X157620200Y-92532500D01*
X143094900Y-94540000D02*
X143094900Y-91519500D01*
X143399500Y-91214900D02*
X156302600Y-91214900D01*
X157283300Y-94909900D02*
X156470000Y-94909900D01*
X157620200Y-94573000D02*
X157283300Y-94909900D01*
X157620200Y-92532500D02*
X157620200Y-94573000D01*
%TO.N,/DIG_RATE_SEL*%
X155319900Y-98600000D02*
X152607400Y-101312500D01*
X145951100Y-93826000D02*
X145395100Y-93270000D01*
X156470000Y-98600000D02*
X155319900Y-98600000D01*
X144245000Y-93270000D02*
X145395100Y-93270000D01*
X152607400Y-101312500D02*
X146545000Y-101312500D01*
X146545000Y-101312500D02*
X145951100Y-100718600D01*
X145951100Y-100718600D02*
X145951100Y-93826000D01*
%TO.N,/ANA_RATE_IN (0-5V)*%
X145465900Y-95430300D02*
X145465900Y-100799300D01*
X154747300Y-101712600D02*
X155319900Y-101140000D01*
X145200700Y-95165100D02*
X145465900Y-95430300D01*
X146379200Y-101712600D02*
X154747300Y-101712600D01*
X136945000Y-93270000D02*
X140148200Y-93270000D01*
X156470000Y-101140000D02*
X155319900Y-101140000D01*
X142043300Y-95165100D02*
X145200700Y-95165100D01*
X145465900Y-100799300D02*
X146379200Y-101712600D01*
X140148200Y-93270000D02*
X142043300Y-95165100D01*
%TO.N,/FIRE_LED-*%
X154139900Y-102500000D02*
X155319900Y-103680000D01*
X138387500Y-100015000D02*
X140872500Y-102500000D01*
X140872500Y-102500000D02*
X154139900Y-102500000D01*
X155319900Y-103680000D02*
X156470000Y-103680000D01*
%TO.N,/ *%
X143094900Y-99001700D02*
X143094900Y-99244900D01*
X144245000Y-95810000D02*
X143094900Y-95810000D01*
X143094900Y-95810000D02*
X143094900Y-99001700D01*
X136562500Y-100015000D02*
X137575800Y-99001700D01*
X137575800Y-99001700D02*
X143094900Y-99001700D01*
X143094900Y-99244900D02*
X143860000Y-100010000D01*
%TD*%
M02*
